<svg width="40" height="41" viewBox="0 0 40 41" fill="none" xmlns="http://www.w3.org/2000/svg">
<g clip-path="url(#clip0_776_1061)">
<path d="M37.3535 33.7943C37.3535 34.8989 36.4581 35.7943 35.3535 35.7943H29.3535C28.2489 35.7943 27.3535 34.8989 27.3535 33.7943V7.20605C27.3535 6.10148 28.2489 5.20605 29.3535 5.20605H35.3535C36.4581 5.20605 37.3535 6.10149 37.3535 7.20605V33.7943Z" fill="#B28224"/>
<path d="M24.8535 33.5982C24.8535 34.7028 23.9581 35.5982 22.8535 35.5982H16.8535C15.7489 35.5982 14.8535 34.7028 14.8535 33.5982V17.2061C14.8535 16.1015 15.7489 15.2061 16.8535 15.2061H22.8535C23.9581 15.2061 24.8535 16.1015 24.8535 17.2061V33.5982Z" fill="#B28224"/>
<path d="M12.3535 33.6472C12.3535 34.7518 11.4581 35.6472 10.3535 35.6472H4.35352C3.24895 35.6472 2.35352 34.7518 2.35352 33.6472V24.7061C2.35352 23.6015 3.24895 22.7061 4.35352 22.7061H10.3535C11.4581 22.7061 12.3535 23.6015 12.3535 24.7061V33.6472Z" fill="#B28224"/>
</g>
<defs>
<clipPath id="clip0_776_1061">
<rect width="40" height="40" fill="white" transform="translate(0 0.5)"/>
</clipPath>
</defs>
</svg>
