<?xml version="1.0" encoding="UTF-8"?>
<svg xmlns="http://www.w3.org/2000/svg" xmlns:xlink="http://www.w3.org/1999/xlink" width="40px" height="40px" viewBox="0 0 40 40" version="1.1">
<g id="surface1">
<path style=" stroke:none;fill-rule:nonzero;fill:#B28224;fill-opacity:1;" d="M 16.945312 26.292969 C 17.75 28.132812 18.773438 29.867188 19.992188 31.464844 C 21.214844 29.867188 22.242188 28.132812 23.050781 26.292969 C 21.023438 26.199219 18.972656 26.199219 16.945312 26.292969 Z M 16.945312 26.292969 "/>
<path style=" stroke:none;fill-rule:nonzero;fill:#B28224;fill-opacity:1;" d="M 9.753906 27.003906 C 11.460938 29.421875 13.96875 31.164062 16.832031 31.921875 C 15.667969 30.234375 14.707031 28.414062 13.972656 26.496094 C 12.558594 26.621094 11.148438 26.789062 9.753906 27.003906 Z M 9.753906 27.003906 "/>
<path style=" stroke:none;fill-rule:nonzero;fill:#B28224;fill-opacity:1;" d="M 8.324219 15.222656 C 7.164062 18.15625 7.164062 21.421875 8.324219 24.355469 C 9.941406 24.085938 11.570312 23.871094 13.148438 23.710938 C 12.578125 21.125 12.578125 18.445312 13.148438 15.855469 C 11.558594 15.707031 9.941406 15.492188 8.324219 15.222656 Z M 8.324219 15.222656 "/>
<path style=" stroke:none;fill-rule:nonzero;fill:#B28224;fill-opacity:1;" d="M 16.011719 23.496094 C 17.335938 23.421875 18.664062 23.382812 19.992188 23.382812 C 21.332031 23.382812 22.660156 23.421875 23.984375 23.496094 C 24.585938 21.058594 24.585938 18.511719 23.984375 16.070312 C 21.328125 16.230469 18.667969 16.230469 16.011719 16.070312 C 15.410156 18.511719 15.410156 21.058594 16.011719 23.496094 Z M 16.011719 23.496094 "/>
<path style=" stroke:none;fill-rule:nonzero;fill:#B28224;fill-opacity:1;" d="M 31.671875 24.355469 C 32.820312 21.417969 32.820312 18.15625 31.671875 15.222656 C 30.054688 15.492188 28.429688 15.707031 26.847656 15.855469 C 27.417969 18.445312 27.417969 21.125 26.847656 23.710938 C 28.429688 23.871094 30.054688 24.085938 31.671875 24.355469 Z M 31.671875 24.355469 "/>
<path style=" stroke:none;fill-rule:nonzero;fill:#B28224;fill-opacity:1;" d="M 23.152344 7.65625 C 24.324219 9.34375 25.289062 11.164062 26.023438 13.078125 C 27.4375 12.957031 28.847656 12.78125 30.242188 12.574219 C 28.53125 10.152344 26.019531 8.410156 23.152344 7.65625 Z M 23.152344 7.65625 "/>
<path style=" stroke:none;fill-rule:nonzero;fill:#B28224;fill-opacity:1;" d="M 23.050781 13.285156 C 22.246094 11.445312 21.21875 9.707031 19.992188 8.113281 C 18.769531 9.707031 17.746094 11.445312 16.945312 13.285156 C 18.972656 13.378906 21.023438 13.378906 23.050781 13.285156 Z M 23.050781 13.285156 "/>
<path style=" stroke:none;fill-rule:nonzero;fill:#B28224;fill-opacity:1;" d="M 4.089844 13.191406 C 4.488281 13.441406 5 13.410156 5.363281 13.117188 C 5.730469 12.808594 5.890625 12.234375 6.050781 11.804688 L 6.632812 10.246094 L 11.574219 10.246094 L 12.15625 11.773438 C 12.367188 12.332031 12.628906 13.167969 13.289062 13.324219 C 13.636719 13.40625 14 13.328125 14.289062 13.117188 C 14.574219 12.90625 14.757812 12.582031 14.78125 12.226562 C 14.734375 11.777344 14.609375 11.335938 14.410156 10.925781 L 11.234375 3.082031 C 11.058594 2.53125 10.820312 2.003906 10.527344 1.507812 C 10.074219 0.847656 9.199219 0.820312 8.453125 1.089844 C 7.550781 1.417969 7.285156 2.507812 6.972656 3.304688 C 6.96875 3.308594 3.863281 10.992188 3.863281 10.992188 C 3.566406 11.730469 3.246094 12.683594 4.089844 13.191406 Z M 9.078125 3.585938 L 10.910156 8.398438 L 7.28125 8.398438 Z M 9.078125 3.585938 "/>
<path style=" stroke:none;fill-rule:nonzero;fill:#B28224;fill-opacity:1;" d="M 35.074219 30.609375 C 35.597656 30.609375 36.019531 30.1875 36.019531 29.664062 C 36.019531 29.144531 35.597656 28.71875 35.074219 28.71875 L 28.769531 28.71875 L 28.875 27.527344 C 28.921875 27.007812 28.539062 26.546875 28.019531 26.5 C 27.5 26.457031 27.042969 26.839844 26.996094 27.355469 L 26.871094 28.71875 L 24.71875 28.71875 C 24.195312 28.71875 23.773438 29.144531 23.773438 29.664062 C 23.773438 30.1875 24.195312 30.609375 24.71875 30.609375 L 26.703125 30.609375 L 26.402344 33.925781 C 26.382812 34.171875 26.457031 34.417969 26.613281 34.609375 C 27.078125 35.136719 27.589844 35.621094 28.152344 36.046875 C 26.964844 36.789062 25.617188 37.230469 24.222656 37.339844 C 23.71875 37.382812 23.339844 37.816406 23.363281 38.320312 C 23.382812 38.824219 23.800781 39.222656 24.304688 39.222656 C 24.332031 39.222656 24.359375 39.222656 24.390625 39.21875 C 26.371094 39.078125 28.265625 38.363281 29.851562 37.167969 C 31.179688 37.90625 32.894531 38.773438 34.984375 38.972656 C 35.015625 38.972656 35.046875 38.976562 35.074219 38.976562 C 35.578125 38.976562 35.996094 38.578125 36.019531 38.074219 C 36.042969 37.570312 35.664062 37.140625 35.164062 37.089844 C 33.65625 36.949219 32.378906 36.308594 31.332031 35.796875 C 32.605469 34.292969 33.515625 32.519531 33.992188 30.609375 Z M 29.667969 34.808594 C 29.191406 34.46875 28.738281 34.089844 28.324219 33.679688 L 28.597656 30.609375 L 32.039062 30.609375 C 31.59375 32.175781 30.78125 33.617188 29.667969 34.808594 Z M 29.667969 34.808594 "/>
<path style=" stroke:none;fill-rule:nonzero;fill:#B28224;fill-opacity:1;" d="M 20 1.671875 C 17.933594 1.667969 15.882812 2.023438 13.9375 2.714844 L 14.8125 4.867188 C 20.734375 2.800781 27.316406 4.4375 31.582031 9.035156 C 35.847656 13.632812 36.988281 20.320312 34.488281 26.074219 L 35.078125 26.074219 C 35.683594 26.074219 36.28125 26.226562 36.8125 26.523438 C 37.675781 24.382812 38.117188 22.09375 38.113281 19.785156 C 38.113281 10.34375 29.988281 1.671875 20 1.671875 Z M 20 1.671875 "/>
<path style=" stroke:none;fill-rule:nonzero;fill:#B28224;fill-opacity:1;" d="M 4.203125 19.988281 C 4.199219 18.714844 4.355469 17.441406 4.664062 16.203125 C 3.871094 16.203125 3.09375 15.949219 2.453125 15.476562 C 1.0625 20.898438 2.253906 26.660156 5.6875 31.085938 C 9.117188 35.511719 14.402344 38.101562 20 38.105469 C 20.246094 38.105469 20.496094 38.097656 20.742188 38.085938 C 20.816406 37.382812 21.097656 36.722656 21.546875 36.183594 C 21.71875 35.980469 21.910156 35.796875 22.125 35.640625 C 21.421875 35.742188 20.710938 35.789062 20 35.789062 C 11.277344 35.777344 4.210938 28.710938 4.203125 19.988281 Z M 4.203125 19.988281 "/>
</g>
</svg>
