<?xml version="1.0" encoding="UTF-8"?>
<svg xmlns="http://www.w3.org/2000/svg" xmlns:xlink="http://www.w3.org/1999/xlink" width="40px" height="40px" viewBox="0 0 40 39" version="1.1">
<g id="surface1">
<path style=" stroke:none;fill-rule:evenodd;fill:#B28224;fill-opacity:1;" d="M 30.148438 38.898438 L 1.753906 38.898438 C 1.449219 38.898438 1.167969 38.625 1.167969 38.328125 L 1.167969 0.59375 C 1.167969 0.273438 1.449219 0.0234375 1.753906 0.0234375 L 23.441406 0.0234375 C 23.769531 0.0234375 24.003906 0.273438 24.027344 0.546875 L 24.121094 6.335938 L 30.148438 6.265625 C 30.476562 6.265625 30.734375 6.515625 30.734375 6.8125 L 30.734375 20.328125 C 30.734375 20.644531 30.476562 20.894531 30.148438 20.894531 C 29.824219 20.894531 29.566406 20.644531 29.566406 20.328125 L 29.566406 7.382812 L 23.535156 7.453125 C 23.207031 7.453125 22.953125 7.179688 22.953125 6.90625 L 22.90625 1.117188 L 2.3125 1.117188 L 2.3125 37.78125 L 30.148438 37.78125 C 30.476562 37.78125 30.734375 38.03125 30.734375 38.351562 C 30.734375 38.671875 30.476562 38.898438 30.148438 38.898438 Z M 30.148438 38.898438 "/>
<path style=" stroke:none;fill-rule:evenodd;fill:#B28224;fill-opacity:1;" d="M 30.148438 7.335938 C 30.03125 7.335938 29.871094 7.292969 29.777344 7.179688 L 23.066406 0.957031 C 22.835938 0.753906 22.835938 0.386719 23.019531 0.183594 C 23.253906 -0.046875 23.605469 -0.046875 23.839844 0.136719 L 30.546875 6.359375 C 30.78125 6.585938 30.78125 6.925781 30.570312 7.15625 C 30.453125 7.292969 30.3125 7.335938 30.148438 7.335938 Z M 30.148438 7.335938 "/>
<path style=" stroke:none;fill-rule:evenodd;fill:#B28224;fill-opacity:1;" d="M 18.207031 27.230469 L 4.183594 27.230469 C 3.878906 27.230469 3.597656 26.980469 3.597656 26.660156 C 3.597656 26.34375 3.878906 26.09375 4.183594 26.09375 L 18.230469 26.09375 C 18.558594 26.09375 18.8125 26.34375 18.8125 26.660156 C 18.8125 26.980469 18.511719 27.230469 18.207031 27.230469 Z M 18.207031 27.230469 "/>
<path style=" stroke:none;fill-rule:evenodd;fill:#B28224;fill-opacity:1;" d="M 19.726562 34.179688 L 4.183594 34.179688 C 3.878906 34.179688 3.597656 33.929688 3.597656 33.613281 C 3.597656 33.292969 3.878906 33.042969 4.183594 33.042969 L 19.726562 33.042969 C 20.054688 33.042969 20.308594 33.292969 20.308594 33.613281 C 20.308594 33.929688 20.007812 34.179688 19.726562 34.179688 Z M 19.726562 34.179688 "/>
<path style=" stroke:none;fill-rule:evenodd;fill:#B28224;fill-opacity:1;" d="M 14.492188 15.699219 L 4.183594 15.699219 C 3.878906 15.699219 3.597656 15.425781 3.597656 15.132812 C 3.597656 14.8125 3.878906 14.5625 4.183594 14.5625 L 14.492188 14.5625 C 14.816406 14.5625 15.074219 14.8125 15.074219 15.132812 C 15.074219 15.425781 14.816406 15.699219 14.492188 15.699219 Z M 14.492188 15.699219 "/>
<path style=" stroke:none;fill-rule:evenodd;fill:#B28224;fill-opacity:1;" d="M 17.085938 21.464844 L 4.183594 21.464844 C 3.878906 21.464844 3.597656 21.214844 3.597656 20.894531 C 3.597656 20.601562 3.878906 20.328125 4.183594 20.328125 L 17.085938 20.328125 C 17.414062 20.328125 17.667969 20.601562 17.667969 20.894531 C 17.667969 21.214844 17.414062 21.464844 17.085938 21.464844 Z M 17.085938 21.464844 "/>
<path style=" stroke:none;fill-rule:evenodd;fill:#B28224;fill-opacity:1;" d="M 30.148438 38.898438 C 30.125 38.898438 30.125 38.898438 30.101562 38.898438 C 27.71875 38.671875 25.847656 37.691406 24.421875 35.980469 C 20.753906 31.46875 21.757812 23.492188 21.78125 23.152344 C 21.828125 22.902344 22.0625 22.695312 22.320312 22.671875 C 28.28125 22.171875 29.613281 20.167969 29.660156 20.074219 C 29.730469 19.984375 29.800781 19.917969 29.894531 19.871094 C 30.148438 19.734375 30.523438 19.824219 30.664062 20.074219 C 30.710938 20.144531 32.042969 22.171875 38.027344 22.671875 C 38.285156 22.695312 38.515625 22.902344 38.539062 23.152344 C 38.585938 23.492188 39.617188 31.46875 35.921875 35.957031 C 34.542969 37.644531 32.628906 38.625 30.242188 38.851562 C 30.195312 38.898438 30.195312 38.898438 30.148438 38.898438 Z M 22.90625 23.746094 C 22.742188 25.453125 22.414062 31.742188 25.335938 35.273438 C 26.527344 36.734375 28.140625 37.601562 30.148438 37.78125 C 32.160156 37.601562 33.796875 36.734375 34.988281 35.273438 C 37.910156 31.71875 37.582031 25.453125 37.417969 23.746094 C 32.976562 23.3125 30.96875 22.011719 30.148438 21.214844 C 29.355469 21.988281 27.34375 23.265625 22.90625 23.746094 Z M 22.90625 23.746094 "/>
<path style=" stroke:none;fill-rule:evenodd;fill:#B28224;fill-opacity:1;" d="M 28.957031 33.066406 C 28.792969 33.066406 28.628906 33.019531 28.539062 32.90625 C 28.515625 32.882812 28.46875 32.859375 28.445312 32.8125 L 25.546875 30.078125 C 25.007812 29.511719 25.007812 28.644531 25.523438 28.074219 C 26.082031 27.550781 27.019531 27.550781 27.554688 28.074219 L 28.933594 29.394531 L 32.675781 25.75 C 32.953125 25.476562 33.304688 25.339844 33.679688 25.339844 C 34.078125 25.339844 34.425781 25.476562 34.683594 25.75 C 34.964844 26 35.105469 26.34375 35.105469 26.730469 C 35.105469 27.09375 34.964844 27.4375 34.660156 27.734375 L 29.402344 32.859375 C 29.378906 32.882812 29.355469 32.90625 29.308594 32.949219 C 29.238281 33.019531 29.121094 33.066406 28.957031 33.066406 Z M 26.597656 28.734375 C 26.527344 28.734375 26.433594 28.78125 26.386719 28.804688 C 26.292969 28.941406 26.292969 29.121094 26.386719 29.257812 L 28.957031 31.71875 L 33.914062 26.890625 C 34.007812 26.820312 34.007812 26.730469 34.007812 26.683594 C 34.007812 26.660156 34.007812 26.570312 33.914062 26.503906 C 33.914062 26.503906 33.890625 26.457031 33.890625 26.457031 C 33.820312 26.410156 33.726562 26.367188 33.679688 26.367188 C 33.65625 26.367188 33.5625 26.367188 33.492188 26.457031 L 29.355469 30.535156 C 29.238281 30.648438 29.097656 30.695312 28.957031 30.695312 C 28.816406 30.695312 28.652344 30.648438 28.558594 30.535156 L 26.808594 28.828125 C 26.761719 28.78125 26.644531 28.734375 26.597656 28.734375 Z M 26.597656 28.734375 "/>
</g>
</svg>
