<svg width="40" height="41" viewBox="0 0 40 41" fill="none" xmlns="http://www.w3.org/2000/svg">
<path d="M36.332 17.1666C36.3354 16.1665 35.9675 15.2008 35.2995 14.4566C34.8432 13.9446 34.5911 13.2828 34.5912 12.597C34.5922 12.404 34.6117 12.2115 34.6493 12.0223C34.7055 11.7523 34.7353 11.4775 34.7384 11.2018C34.7377 10.3444 34.4664 9.50904 33.9632 8.81483C33.46 8.12061 32.7505 7.60292 31.9359 7.33551C31.5209 7.20199 31.1436 6.97155 30.8353 6.66327C30.527 6.35499 30.2966 5.97772 30.1631 5.5627C30.0157 5.11108 29.7895 4.68914 29.4949 4.31642C29.1128 3.83366 28.6269 3.4431 28.0732 3.1737C27.5196 2.90429 26.9124 2.76294 26.2968 2.76012C26.0191 2.76329 25.7424 2.79329 25.4705 2.84972C25.0437 2.93675 24.6025 2.9235 24.1817 2.81102C23.7609 2.69853 23.372 2.48989 23.0455 2.20153C22.3049 1.5404 21.3483 1.17238 20.3555 1.16657C19.3628 1.16076 18.402 1.51756 17.6536 2.16998C17.6292 2.18643 17.6059 2.20438 17.5837 2.22374C17.2621 2.51035 16.8771 2.71647 16.4602 2.82513C16.0434 2.93378 15.6067 2.94186 15.1862 2.8487C14.9166 2.79289 14.6423 2.76323 14.3671 2.76012C13.7518 2.76291 13.1451 2.9041 12.5918 3.17323C12.0385 3.44235 11.5528 3.83252 11.1708 4.31482C10.8756 4.68793 10.6489 5.11049 10.5014 5.56283C10.3676 5.97834 10.1366 6.35598 9.82774 6.66444C9.51885 6.97291 9.1409 7.20332 8.7252 7.3366C7.91119 7.60432 7.20238 8.12202 6.69969 8.816C6.197 9.50998 5.92606 10.3449 5.92544 11.2018C5.9284 11.4768 5.95791 11.7509 6.01357 12.0202C6.05173 12.2101 6.07152 12.4033 6.07264 12.597C6.07297 13.2811 5.82211 13.9416 5.36768 14.453C4.70125 15.1989 4.33261 16.1639 4.33203 17.1641C4.33145 18.1643 4.69898 19.1298 5.36454 19.8764C5.82079 20.3885 6.07281 21.0504 6.07264 21.7362C6.07161 21.9292 6.05215 22.1217 6.01453 22.3109C5.95834 22.5809 5.9285 22.8557 5.92544 23.1314C5.92619 23.989 6.19764 24.8245 6.70109 25.5188C7.20455 26.2131 7.91432 26.7308 8.72923 26.998C8.9735 27.0816 9.20422 27.2005 9.41404 27.3509L5.69683 34.497C5.64786 34.5909 5.62297 34.6955 5.6244 34.8014C5.62583 34.9072 5.65353 35.0111 5.70502 35.1037C5.75651 35.1962 5.83017 35.2745 5.91939 35.3315C6.00861 35.3886 6.1106 35.4226 6.2162 35.4304L10.8075 35.7748L13.725 39.3327C13.7851 39.4058 13.8606 39.4648 13.9462 39.5052C14.0318 39.5457 14.1252 39.5667 14.2199 39.5667C14.2418 39.5667 14.2637 39.5654 14.2861 39.5633C14.3914 39.5524 14.4924 39.5155 14.5799 39.456C14.6674 39.3964 14.7387 39.316 14.7874 39.222L18.2379 32.5884C18.8707 32.9669 19.5944 33.1668 20.3317 33.1667C21.0691 33.1666 21.7927 32.9666 22.4255 32.588L25.8762 39.222C25.9249 39.316 25.9962 39.3964 26.0837 39.456C26.1712 39.5155 26.2722 39.5524 26.3775 39.5633C26.3999 39.5654 26.4218 39.5667 26.4437 39.5667C26.5384 39.5667 26.6319 39.5457 26.7175 39.5053C26.803 39.4648 26.8786 39.4058 26.9387 39.3327L29.8562 35.7748L34.4469 35.4304C34.5525 35.4226 34.6545 35.3886 34.7438 35.3316C34.833 35.2746 34.9067 35.1963 34.9582 35.1037C35.0097 35.0112 35.0374 34.9073 35.0388 34.8014C35.0402 34.6955 35.0153 34.5909 34.9662 34.497L31.2469 27.3459C31.4602 27.1979 31.6931 27.0803 31.9388 26.9967C32.7528 26.7289 33.4616 26.2112 33.9642 25.5172C34.4669 24.8232 34.7378 23.9883 34.7384 23.1314C34.7354 22.8564 34.7059 22.5823 34.6503 22.313C34.6121 22.1231 34.5923 21.9299 34.5912 21.7362C34.5911 21.0508 34.8429 20.3892 35.2987 19.8772C35.9667 19.1327 36.3349 18.1669 36.332 17.1666ZM10.7554 34.4873L7.28014 34.2267L10.3279 28.3677C10.3335 28.3788 10.3402 28.3891 10.3458 28.4002C10.4067 28.5204 10.4589 28.6449 10.502 28.7726C10.8394 29.7849 11.5608 30.6243 12.5109 31.11L10.7554 34.4873ZM14.1 37.7705L11.8915 35.0773L13.7399 31.5219C14.2204 31.6003 14.7114 31.5876 15.1872 31.4846C15.3733 31.4477 15.5625 31.4284 15.7522 31.427C15.8137 31.4264 15.8712 31.4378 15.9314 31.4411C16.325 31.4651 16.709 31.5727 17.0578 31.7567C17.1019 31.7801 17.1486 31.7962 17.1918 31.822L17.1938 31.8234L14.1 37.7705ZM26.5638 37.7705L23.4701 31.8227C23.6106 31.7388 23.7579 31.6669 23.9106 31.6079C24.1799 31.5089 24.463 31.4522 24.7497 31.4397C24.8043 31.437 24.8562 31.4264 24.9119 31.4269C25.0792 31.43 25.246 31.447 25.4105 31.4777C25.4331 31.4817 25.4541 31.4804 25.477 31.4849C25.4868 31.4868 25.4949 31.4869 25.5047 31.4887C25.6751 31.5212 25.8322 31.5418 25.9818 31.5552C26.0394 31.5605 26.0949 31.562 26.1506 31.5648C26.1987 31.5668 26.2505 31.573 26.2969 31.573C26.3197 31.573 26.3414 31.568 26.3641 31.5676C26.5482 31.5675 26.732 31.5529 26.9138 31.5238L26.9249 31.5229L28.7723 35.0776L26.5638 37.7705ZM33.3833 34.2265L29.9085 34.487L28.1584 31.1198C28.2029 31.0968 28.2425 31.0661 28.286 31.0416C28.3505 31.0054 28.4122 30.9655 28.4744 30.926C28.5646 30.8684 28.6553 30.8128 28.7407 30.7482C28.8719 30.6498 28.9971 30.5434 29.1155 30.4298C29.1704 30.3768 29.2195 30.3182 29.2716 30.262C29.354 30.1734 29.4343 30.0832 29.5087 29.9873C29.5535 29.9292 29.5955 29.869 29.6374 29.8081C29.7118 29.7007 29.7805 29.5896 29.8446 29.4748C29.8745 29.4212 29.9056 29.369 29.9332 29.3138C30.0226 29.1387 30.0993 28.9574 30.1626 28.7713L30.1683 28.7576C30.2169 28.6275 30.2752 28.5013 30.3427 28.38L33.3833 34.2265ZM34.3464 19.0226L34.3433 19.0261C33.6783 19.7722 33.3109 20.7368 33.3112 21.7362C33.3125 22.0117 33.3399 22.2863 33.393 22.5566C33.433 22.7456 33.4548 22.9381 33.4581 23.1312C33.4574 23.7187 33.2715 24.291 32.9268 24.7667C32.5821 25.2424 32.0961 25.5973 31.5381 25.7809C30.8332 26.0144 30.206 26.4368 29.7247 27.0022C29.7 27.0308 29.6735 27.0573 29.6495 27.0865C29.5802 27.1722 29.5177 27.263 29.4554 27.3541C29.4252 27.3983 29.3919 27.4398 29.3634 27.4852C29.2972 27.5907 29.2392 27.7015 29.1828 27.8133C29.1661 27.8463 29.146 27.8773 29.1302 27.9107C29.0597 28.0599 28.9984 28.2132 28.9468 28.3699C28.9035 28.4969 28.8513 28.6206 28.7906 28.7402C28.7703 28.7807 28.7475 28.8196 28.7253 28.859C28.6838 28.9331 28.6392 29.0048 28.5915 29.0741C28.5595 29.1206 28.5275 29.1671 28.4926 29.2115C28.4513 29.2648 28.406 29.3139 28.3612 29.3639C28.1768 29.5686 27.9632 29.745 27.7272 29.8872C27.7135 29.8954 27.7002 29.9043 27.6864 29.9123C27.5952 29.9648 27.5012 30.0121 27.4048 30.0541L27.3828 30.0633C27.2814 30.1066 27.1776 30.144 27.0719 30.1752C27.0386 30.1857 27.0063 30.1917 26.9735 30.2008C26.8971 30.22 26.8221 30.244 26.7436 30.2568L26.733 30.2581C26.6018 30.2782 26.4695 30.2889 26.3368 30.2901C26.2941 30.2901 26.2512 30.2901 26.2062 30.2878C26.1658 30.2861 26.1253 30.2844 26.0817 30.2803C25.9702 30.2695 25.8534 30.2542 25.7219 30.2286C25.5585 30.1967 25.3935 30.1739 25.2276 30.1605C25.16 30.155 25.0942 30.1576 25.0274 30.1553C24.9341 30.1522 24.8402 30.1457 24.7483 30.1489C24.6183 30.1531 24.4909 30.1672 24.364 30.1834C24.3378 30.1868 24.3108 30.1869 24.2847 30.1908C23.8332 30.2578 23.3967 30.4028 22.9947 30.6192L22.9872 30.6227C22.8644 30.6896 22.7451 30.7628 22.6298 30.8419C22.6176 30.8501 22.6047 30.8569 22.5927 30.8652C22.4866 30.9389 22.3849 31.0204 22.2848 31.1047C22.2665 31.12 22.2467 31.1326 22.2288 31.1482L22.2262 31.1513C22.2139 31.162 22.2006 31.1705 22.1881 31.1817C21.6766 31.6362 21.0161 31.8872 20.3319 31.8872C19.6476 31.8872 18.9871 31.6362 18.4756 31.1817C18.4643 31.1716 18.4531 31.1625 18.4419 31.1532L18.4231 31.1382C18.3603 31.0841 18.2931 31.0375 18.2279 30.9875C18.1721 30.9447 18.1183 30.8983 18.0607 30.8585C18.0148 30.8265 17.9658 30.8008 17.9189 30.7713C17.8357 30.7188 17.7537 30.6643 17.6675 30.6181C17.6467 30.607 17.6245 30.5989 17.6035 30.5882C16.7833 30.169 15.8446 30.0423 14.9425 30.2288C14.4922 30.338 14.0203 30.3183 13.5807 30.1719C13.1476 30.045 12.7518 29.8148 12.4273 29.5012C12.1028 29.1877 11.8592 28.8 11.7175 28.3716C11.5129 27.7428 11.1543 27.1752 10.6743 26.7204L10.6688 26.7156L10.663 26.7092L10.6594 26.7071C10.2274 26.2847 9.70341 25.9681 9.1286 25.7819C8.56986 25.5988 8.08317 25.244 7.73786 24.7681C7.39255 24.2922 7.20623 23.7194 7.20545 23.1314C7.20876 22.9376 7.23075 22.7445 7.27111 22.5549C7.32397 22.2852 7.35127 22.0111 7.35265 21.7362C7.35268 20.7353 6.98425 19.7693 6.31764 19.0226C5.86256 18.5106 5.61145 17.8493 5.61203 17.1643C5.61261 16.4794 5.86484 15.8185 6.32077 15.3073C6.98571 14.5611 7.35298 13.5964 7.35265 12.597C7.35137 12.3216 7.32396 12.0469 7.27079 11.7766C7.23071 11.5875 7.20883 11.395 7.20545 11.2018C7.20608 10.6143 7.39199 10.042 7.7367 9.56627C8.08142 9.09056 8.56739 8.73569 9.12546 8.55215C9.73015 8.35321 10.2797 8.0151 10.7299 7.56504C11.1801 7.11498 11.5183 6.56554 11.7175 5.96091C11.8183 5.65156 11.9734 5.36267 12.1757 5.10778C12.4374 4.77677 12.7703 4.50893 13.1496 4.3241C13.529 4.13928 13.9451 4.04222 14.3671 4.04013C14.5604 4.04346 14.7529 4.06513 14.9421 4.10483C15.5484 4.23346 16.1763 4.21964 16.7763 4.06444C17.3764 3.90924 17.9323 3.6169 18.4002 3.21043C18.4268 3.19282 18.4521 3.17334 18.4759 3.15213C18.9879 2.6971 19.6493 2.446 20.3343 2.44652C21.0193 2.44704 21.6802 2.69914 22.1916 3.15494C22.6662 3.57579 23.2322 3.88066 23.8447 4.04552C24.4573 4.21038 25.0998 4.23073 25.7216 4.10496C25.9108 4.06527 26.1034 4.04356 26.2968 4.04013C26.719 4.04233 27.1353 4.13955 27.5149 4.32457C27.8944 4.50959 28.2274 4.77767 28.4893 5.10894C28.6909 5.36362 28.8457 5.65209 28.9464 5.96091C29.1452 6.56513 29.4829 7.11428 29.9325 7.56422C30.3821 8.01416 30.931 8.35234 31.5351 8.55158C32.0938 8.73469 32.5805 9.08943 32.9258 9.56528C33.2712 10.0411 33.4575 10.6138 33.4584 11.2018C33.4551 11.3956 33.4331 11.5887 33.3927 11.7783C33.3399 12.0481 33.3126 12.3221 33.3112 12.597C33.3112 13.5979 33.6796 14.5639 34.3462 15.3106C34.8008 15.822 35.0519 16.4824 35.0519 17.1666C35.0519 17.8508 34.801 18.5112 34.3464 19.0226Z" fill="#B28224"/>
<path d="M26.8656 14.2013L23.1955 13.4835L21.3787 10.2151C21.2751 10.0284 21.1234 9.87285 20.9394 9.76454C20.7554 9.65624 20.5458 9.59912 20.3323 9.59912C20.1188 9.59912 19.9091 9.65624 19.7252 9.76454C19.5412 9.87285 19.3895 10.0284 19.2859 10.2151L17.469 13.4835L13.7992 14.2013C13.5898 14.2424 13.3951 14.3387 13.2354 14.4802C13.0756 14.6217 12.9566 14.8034 12.8907 15.0064C12.8247 15.2094 12.8142 15.4263 12.8602 15.6347C12.9062 15.8431 13.0071 16.0354 13.1524 16.1918L15.6992 18.9292L15.248 22.6421C15.2224 22.854 15.2539 23.0689 15.3393 23.2645C15.4246 23.4602 15.5607 23.6294 15.7334 23.7548C15.9061 23.8802 16.1092 23.9572 16.3216 23.9778C16.5341 23.9983 16.7482 23.9617 16.9417 23.8718L20.3324 22.2958L23.7237 23.8721C23.9172 23.9619 24.1313 23.9985 24.3437 23.9779C24.5561 23.9572 24.7592 23.8802 24.9318 23.7548C25.1045 23.6294 25.2405 23.4601 25.3257 23.2644C25.411 23.0688 25.4424 22.8539 25.4168 22.642L24.9656 18.9295L27.5128 16.1917C27.6581 16.0354 27.759 15.843 27.8051 15.6346C27.8511 15.4262 27.8406 15.2093 27.7746 15.0063C27.7087 14.8033 27.5896 14.6216 27.4298 14.4801C27.2701 14.3385 27.075 14.2423 26.8656 14.2013ZM24.0018 18.0862C23.8829 18.2137 23.7934 18.3658 23.7395 18.5316C23.6857 18.6975 23.6687 18.8731 23.6899 19.0462L24.1281 22.6487L20.8368 21.1187C20.6787 21.0452 20.5064 21.0071 20.332 21.0071C20.1577 21.0072 19.9854 21.0454 19.8274 21.119L16.5367 22.6486L16.9742 19.0467C16.9957 18.8736 16.979 18.6979 16.9252 18.5319C16.8715 18.3659 16.782 18.2137 16.663 18.0861L14.1911 15.4293L17.7532 14.7323C17.9243 14.699 18.0861 14.6286 18.2271 14.526C18.3681 14.4235 18.485 14.2913 18.5694 14.1388L20.3324 10.9673L22.0955 14.1391C22.1801 14.2916 22.297 14.4237 22.438 14.5261C22.579 14.6286 22.7407 14.699 22.9118 14.7323L26.4737 15.4292L24.0018 18.0862Z" fill="#B28224"/>
<path d="M20.33 5.3833C18.059 5.38333 15.8389 6.05679 13.9507 7.31852C12.0624 8.58024 10.5907 10.3736 9.72165 12.4717C8.8526 14.5699 8.62524 16.8786 9.06832 19.106C9.5114 21.3334 10.605 23.3793 12.2109 24.9851C13.8168 26.591 15.8628 27.6845 18.0901 28.1276C20.3175 28.5706 22.6263 28.3432 24.7244 27.474C26.8225 26.6049 28.6158 25.1332 29.8775 23.2449C31.1392 21.3566 31.8126 19.1366 31.8125 16.8655C31.809 13.8213 30.5981 10.9027 28.4454 8.75015C26.2928 6.59757 23.3742 5.38674 20.33 5.3833ZM20.33 27.0681C18.3121 27.0681 16.3396 26.4697 14.6618 25.3486C12.9841 24.2276 11.6764 22.6342 10.9043 20.7699C10.1321 18.9057 9.93005 16.8543 10.3237 14.8752C10.7174 12.8962 11.6891 11.0783 13.1159 9.65146C14.5427 8.22464 16.3606 7.25295 18.3397 6.85929C20.3187 6.46562 22.3701 6.66765 24.2343 7.43983C26.0986 8.21201 27.692 9.51966 28.813 11.1974C29.9341 12.8752 30.5325 14.8477 30.5325 16.8655C30.5294 19.5705 29.4534 22.1637 27.5408 24.0764C25.6281 25.989 23.0349 27.0649 20.33 27.0681Z" fill="#B28224"/>
</svg>
