<svg width="40" height="41" viewBox="0 0 40 41" fill="none" xmlns="http://www.w3.org/2000/svg">
<path d="M3.93465 38.7326H29.9562C32.1059 38.7306 34.1968 38.0272 35.9144 36.7282C37.6321 35.4292 38.8835 33.6047 39.4805 31.5294C39.5017 31.4565 39.5057 31.3796 39.4921 31.3048C39.4786 31.2301 39.448 31.1595 39.4026 31.0988C39.3553 31.0353 39.2934 30.9843 39.2221 30.9502C39.1509 30.9161 39.0724 30.8999 38.9936 30.903H20.9772V3.01031C20.9818 2.90175 20.9503 2.79473 20.8877 2.70613C20.8251 2.61752 20.735 2.55238 20.6315 2.52097C20.5317 2.49063 20.4249 2.49327 20.3267 2.52851C20.2285 2.56374 20.1442 2.62971 20.0861 2.71671L3.5305 27.184C3.47543 27.2577 3.44219 27.3455 3.43461 27.4374C3.42703 27.5292 3.44541 27.6214 3.48764 27.7032C3.52987 27.785 3.59423 27.8531 3.67331 27.8998C3.75239 27.9465 3.84298 27.9697 3.93465 27.967H20.0033V30.903H1.98693C1.85779 30.903 1.73394 30.9546 1.64262 31.0464C1.5513 31.1381 1.5 31.2626 1.5 31.3924V36.2858C1.5 36.9347 1.75651 37.5571 2.21309 38.0159C2.43917 38.2431 2.70756 38.4234 3.00295 38.5463C3.29833 38.6693 3.61493 38.7326 3.93465 38.7326ZM4.85495 26.9883L20.0033 4.60069V26.9883H4.85495ZM2.47386 31.8817H38.3216C37.6886 33.6005 36.5483 35.0838 35.0532 36.1333C33.5582 37.1827 31.7798 37.7482 29.9562 37.7539H3.93465C3.54722 37.7539 3.17567 37.5992 2.90171 37.3239C2.62776 37.0486 2.47386 36.6752 2.47386 36.2858V31.8817Z" fill="#B28224" stroke="#B28224"/>
</svg>
