<svg width="40" height="41" viewBox="0 0 40 41" fill="none" xmlns="http://www.w3.org/2000/svg">
<path d="M20.4998 2.5C10.5744 2.5 2.5 10.5747 2.5 20.5C2.5 30.4254 10.5744 38.5 20.4998 38.5C30.4251 38.5 38.5 30.4254 38.5 20.5C38.5 10.5747 30.4251 2.5 20.4998 2.5ZM29.5346 19.0759H36.8595C36.9004 19.5455 36.9254 20.0198 36.9254 20.5C36.9254 20.9799 36.9004 21.454 36.8595 21.9236H29.5346C29.608 21.4584 29.6567 20.9852 29.6567 20.5C29.6568 20.0143 29.6076 19.5412 29.5346 19.0759ZM36.646 17.5014H29.2653C29.2249 17.5014 29.1858 17.5075 29.1467 17.5132C28.2263 14.8575 26.121 12.7571 23.4614 11.8441C23.4838 11.7716 23.4992 11.6963 23.4992 11.6165V4.35395C30.1549 5.58762 35.4125 10.8451 36.646 17.5014ZM20.4998 28.0822C16.3191 28.0822 12.9174 24.6809 12.9174 20.5C12.9174 16.3191 16.3191 12.9178 20.4998 12.9178C24.6809 12.9178 28.0823 16.3191 28.0823 20.5C28.0823 24.6809 24.6809 28.0822 20.4998 28.0822ZM21.9245 4.14026V11.4656C21.4589 11.3925 20.9857 11.3433 20.4998 11.3433C20.0148 11.3433 19.5416 11.3923 19.0768 11.4654V4.14006C19.546 4.09963 20.0201 4.07456 20.4998 4.07456C20.9799 4.07456 21.4545 4.09958 21.9245 4.14026ZM17.5022 4.35355V11.6166C17.5022 11.6961 17.5176 11.7715 17.5396 11.8437C14.8794 12.7562 12.7737 14.8573 11.8529 17.5133C11.8143 17.5076 11.7752 17.5014 11.7343 17.5014H4.35355C5.58717 10.8446 10.8455 5.58698 17.5022 4.35355ZM4.07456 20.5C4.07456 20.0198 4.09963 19.5455 4.14006 19.0759H11.465C11.3921 19.5412 11.3429 20.0143 11.3429 20.5C11.3429 20.9853 11.3921 21.4584 11.465 21.9236H4.14006C4.09963 21.454 4.07456 20.9799 4.07456 20.5ZM4.35355 23.4983H11.7343C11.7752 23.4983 11.8138 23.4921 11.853 23.4864C12.769 26.1303 14.8602 28.2235 17.5027 29.1428C17.5027 29.1445 17.5023 29.1457 17.5023 29.1476V36.6465C10.8451 35.413 5.58717 30.1549 4.35355 23.4983ZM19.0768 36.86V29.5346C19.5416 29.6078 20.0148 29.6567 20.4998 29.6567C20.9856 29.6567 21.4589 29.6075 21.9245 29.5344V36.8598C21.4545 36.9004 20.9799 36.9254 20.4998 36.9254C20.0201 36.9254 19.546 36.9005 19.0768 36.86ZM23.4991 36.646V29.1476C23.4991 29.1457 23.4982 29.1441 23.4982 29.1423C26.1402 28.2228 28.2311 26.1298 29.1467 23.4864C29.1858 23.4921 29.2249 23.4983 29.2652 23.4983H36.6459C35.4129 30.1546 30.1554 35.4125 23.4991 36.646Z" fill="#B28224"/>
</svg>
