<svg width="1480" height="258" viewBox="0 0 1480 258" fill="none" xmlns="http://www.w3.org/2000/svg">
<g clip-path="url(#clip0_8_187)">
<g clip-path="url(#clip1_8_187)">
<path d="M252.565 122.719H227.463L227.153 118.69C225.294 99.7864 217.857 81.8124 205.771 66.9374L202.982 63.5286L220.646 45.8645C221.575 44.9349 222.195 43.3854 222.195 42.1458C222.195 40.5963 221.575 39.3567 220.646 38.427L219.406 37.1875C218.786 35.9479 217.237 35.3281 215.687 35.3281C214.138 35.3281 212.898 35.9479 211.969 36.8776L194.304 54.5416L191.206 51.7526C176.331 39.6666 158.357 32.2291 139.453 30.3698H135.114V5.26823C135.114 2.16927 132.635 0 129.846 0H128.297C125.198 0 123.029 2.47917 123.029 5.26823V30.3698L119 30.6797C100.096 32.539 82.1223 39.9765 67.2473 52.0625L64.1484 54.8515L46.4843 37.1875C45.5546 36.2578 44.0052 35.638 42.7656 35.638C41.2161 35.638 39.9765 36.2578 39.0468 37.1875L37.8073 38.427C35.638 40.5963 35.638 44.0052 37.8073 46.1744L55.4713 63.8385L52.9921 66.9374C40.9062 81.8124 33.4687 99.7864 31.6093 118.69L30.3698 122.719H5.26823C2.16927 122.719 0 125.198 0 127.987V129.536C0 132.635 2.47917 134.805 5.26823 134.805H30.3698L30.6797 138.833C32.539 157.737 39.9765 175.711 52.0625 190.586L54.5416 193.685L36.8776 211.349C34.7083 213.518 34.7083 216.927 36.8776 219.096L38.1172 220.336C39.0468 221.265 40.5963 221.885 41.8359 221.885C43.0755 221.885 44.625 221.265 45.5546 220.336L63.2187 202.672L66.3176 205.461C81.1926 217.547 99.1666 224.984 118.07 226.844L122.099 227.153V252.255C122.099 255.354 124.578 257.523 127.367 257.523H128.917C132.015 257.523 134.185 255.044 134.185 252.255V227.153L138.213 226.844C157.117 224.984 175.091 217.547 189.966 205.461L193.065 202.672L210.729 220.336C211.659 221.265 213.208 221.885 214.448 221.885C215.687 221.885 217.237 221.265 218.166 220.336L219.406 219.096C220.336 218.166 220.956 216.617 220.956 215.377C220.956 213.828 220.336 212.588 219.406 211.659L201.742 193.995L204.531 190.896C216.617 176.021 224.054 158.047 225.914 139.143L226.224 135.114H251.325C254.424 135.114 256.593 132.635 256.593 129.846V128.297C258.143 125.198 255.664 122.719 252.565 122.719ZM43.3854 117.45C45.2447 102.575 51.1328 88.6301 60.4296 76.5442L63.5286 72.2057L114.042 122.719H42.7656L43.3854 117.45ZM63.5286 185.627L60.4296 181.289C51.4427 169.513 45.5546 155.258 43.3854 140.383L42.7656 135.114H114.042L63.5286 185.627ZM122.719 215.067L117.45 214.448C102.575 212.588 88.6301 206.7 76.5442 197.403L72.2057 194.304L122.719 143.792V215.067ZM122.719 114.042L72.2057 63.5286L76.5442 60.4296C88.3202 51.4427 102.575 45.5546 117.45 43.3854L122.719 42.7656V114.042ZM128.917 133.565C126.437 133.565 124.268 131.396 124.268 128.917C124.268 126.437 126.437 124.268 128.917 124.268C131.396 124.268 133.565 126.437 133.565 128.917C133.565 131.396 131.396 133.565 128.917 133.565ZM135.114 42.7656L140.383 43.3854C155.258 45.2447 169.203 51.1328 181.289 60.4296L185.627 63.5286L135.114 114.042V42.7656ZM181.289 197.403C169.513 206.39 155.258 212.278 140.383 214.448L135.114 215.067V143.792L185.627 194.304L181.289 197.403ZM214.448 140.383C212.588 155.258 206.7 169.513 197.403 181.289L194.304 185.627L143.792 135.114H215.068L214.448 140.383ZM143.792 122.719L194.304 72.2057L197.403 76.5442C206.39 88.3202 212.278 102.575 214.448 117.45L215.068 122.719H143.792Z" fill="white"/>
</g>
</g>
<path d="M311.74 19.4953C311.74 11.2326 307.56 4.5343 302.404 4.5343C297.248 4.5343 293.068 11.2326 293.068 19.4953V238.028C293.068 246.291 297.248 252.989 302.404 252.989C307.56 252.989 311.74 246.291 311.74 238.028V19.4953Z" fill="white"/>
<g clip-path="url(#clip2_8_187)">
<g clip-path="url(#clip3_8_187)">
<g clip-path="url(#clip4_8_187)">
<g clip-path="url(#clip5_8_187)">
<g clip-path="url(#clip6_8_187)">
<g clip-path="url(#clip7_8_187)">
<path d="M393.606 184.344L347.782 70.2095H367.724L392.333 134.914C394.454 140.571 396.364 145.974 398.061 151.122C399.758 156.298 401.031 161.22 401.879 165.887H402.728C403.577 162.351 404.92 157.712 406.759 151.97C408.597 146.257 410.507 140.5 412.487 134.702L435.61 70.2095H455.764L406.759 199.618C402.799 210.367 397.679 218.923 391.399 225.288C385.092 231.652 376.422 234.834 365.39 234.834C361.996 234.834 359.026 234.665 356.48 234.325C353.935 233.957 351.742 233.561 349.904 233.137V218.287C351.459 218.57 353.34 218.853 355.547 219.136C357.725 219.418 360.016 219.56 362.42 219.56C368.926 219.56 374.201 217.721 378.246 214.044C382.263 210.367 385.403 205.488 387.666 199.406L393.606 184.344ZM516.862 68.3002C530.722 68.3002 540.976 71.341 547.623 77.4225C554.27 83.504 557.594 93.1919 557.594 106.486V183.919H544.017L540.41 167.796H539.562C534.612 174.019 529.407 178.616 523.948 181.586C518.517 184.556 510.993 186.041 501.375 186.041C491.051 186.041 482.495 183.311 475.706 177.852C468.917 172.421 465.523 163.907 465.523 152.31C465.523 140.995 469.978 132.255 478.888 126.089C487.798 119.951 501.517 116.599 520.044 116.033L539.35 115.396V108.608C539.35 99.132 537.299 92.5555 533.197 88.8783C529.096 85.2011 523.297 83.3625 515.801 83.3625C509.861 83.3625 504.204 84.2394 498.83 85.9931C493.455 87.7751 488.435 89.7976 483.767 92.0605L478.04 78.0589C482.99 75.3717 488.859 73.0664 495.648 71.143C502.436 69.2478 509.508 68.3002 516.862 68.3002ZM539.137 128.337L522.378 128.974C508.235 129.539 498.434 131.802 492.975 135.762C487.544 139.722 484.828 145.309 484.828 152.522C484.828 158.886 486.766 163.553 490.641 166.523C494.544 169.494 499.537 170.979 505.618 170.979C515.236 170.979 523.226 168.32 529.591 163.002C535.955 157.712 539.137 149.552 539.137 138.52V128.337ZM638.421 186.041C628.38 186.041 619.427 183.99 611.564 179.889C603.729 175.787 597.576 169.423 593.107 160.796C588.666 152.168 586.446 141.137 586.446 127.701C586.446 113.699 588.779 102.314 593.447 93.5455C598.085 84.7768 604.407 78.3417 612.412 74.2403C620.417 70.1388 629.497 68.0881 639.652 68.0881C645.479 68.0881 651.079 68.6821 656.454 69.8701C661.828 71.0864 666.212 72.5431 669.607 74.2403L663.879 89.7269C660.456 88.454 656.496 87.2519 651.999 86.1204C647.473 84.989 643.23 84.4232 639.27 84.4232C616.896 84.4232 605.709 98.7784 605.709 127.489C605.709 141.207 608.438 151.702 613.897 158.971C619.357 166.269 627.461 169.918 638.209 169.918C644.432 169.918 649.905 169.281 654.629 168.008C659.381 166.736 663.737 165.18 667.697 163.341V179.889C663.85 181.869 659.636 183.396 655.054 184.471C650.443 185.518 644.899 186.041 638.421 186.041ZM713.266 22.689V69.9974C713.266 75.6546 712.913 80.9582 712.205 85.9083H713.478C717.156 80.1096 722.148 75.7253 728.456 72.7553C734.735 69.7852 741.552 68.3002 748.907 68.3002C762.767 68.3002 773.162 71.5814 780.092 78.1437C787.022 84.7344 790.487 95.3134 790.487 109.881V183.919H772.03V111.154C772.03 92.9091 763.545 83.7868 746.573 83.7868C733.844 83.7868 725.118 87.3509 720.394 94.4789C715.642 101.635 713.266 111.861 713.266 125.155V183.919H694.597V22.689H713.266ZM863.677 170.766C866.506 170.766 869.405 170.512 872.375 170.003C875.345 169.522 877.75 168.999 879.588 168.433V182.647C877.608 183.637 874.779 184.457 871.102 185.107C867.425 185.73 863.889 186.041 860.495 186.041C854.555 186.041 849.082 185.008 844.075 182.944C839.04 180.907 834.967 177.343 831.855 172.251C828.744 167.16 827.188 160.018 827.188 150.825V84.6354H811.065V75.7253L827.4 68.3002L834.825 44.1156H845.857V70.2095H878.74V84.6354H845.857V150.4C845.857 157.331 847.526 162.45 850.864 165.76C854.173 169.098 858.444 170.766 863.677 170.766ZM899.53 172.464C899.53 167.231 900.803 163.553 903.348 161.432C905.894 159.311 908.935 158.25 912.471 158.25C916.148 158.25 919.288 159.311 921.89 161.432C924.521 163.553 925.836 167.231 925.836 172.464C925.836 177.555 924.521 181.232 921.89 183.495C919.288 185.758 916.148 186.889 912.471 186.889C908.935 186.889 905.894 185.758 903.348 183.495C900.803 181.232 899.53 177.555 899.53 172.464ZM1004.75 186.041C994.712 186.041 985.76 183.99 977.896 179.889C970.061 175.787 963.909 169.423 959.44 160.796C954.999 152.168 952.778 141.137 952.778 127.701C952.778 113.699 955.112 102.314 959.779 93.5455C964.446 84.7768 970.768 78.3417 978.745 74.2403C986.75 70.1388 995.844 68.0881 1006.03 68.0881C1011.83 68.0881 1017.41 68.6821 1022.79 69.8701C1028.16 71.0864 1032.54 72.5431 1035.94 74.2403L1030.21 89.7269C1026.82 88.454 1022.86 87.2519 1018.33 86.1204C1013.81 84.989 1009.56 84.4232 1005.6 84.4232C983.256 84.4232 972.083 98.7784 972.083 127.489C972.083 141.207 974.799 151.702 980.23 158.971C985.689 166.269 993.793 169.918 1004.54 169.918C1010.76 169.918 1016.24 169.281 1020.96 168.008C1025.71 166.736 1030.07 165.18 1034.03 163.341V179.889C1030.21 181.869 1026 183.396 1021.39 184.471C1016.8 185.518 1011.26 186.041 1004.75 186.041ZM1104 68.3002C1117.86 68.3002 1128.11 71.341 1134.76 77.4225C1141.4 83.504 1144.73 93.1919 1144.73 106.486V183.919H1131.15L1127.54 167.796H1126.69C1121.74 174.019 1116.55 178.616 1111.12 181.586C1105.66 184.556 1098.13 186.041 1088.51 186.041C1078.18 186.041 1069.63 183.311 1062.84 177.852C1056.05 172.421 1052.66 163.907 1052.66 152.31C1052.66 140.995 1057.11 132.255 1066.02 126.089C1074.93 119.951 1088.65 116.599 1107.18 116.033L1126.48 115.396V108.608C1126.48 99.132 1124.43 92.5555 1120.33 88.8783C1116.23 85.2011 1110.43 83.3625 1102.93 83.3625C1096.99 83.3625 1091.34 84.2394 1085.96 85.9931C1080.59 87.7751 1075.57 89.7976 1070.9 92.0605L1065.17 78.0589C1070.12 75.3717 1075.99 73.0664 1082.78 71.143C1089.57 69.2478 1096.64 68.3002 1104 68.3002ZM1126.27 128.337L1109.51 128.974C1095.37 129.539 1085.58 131.802 1080.15 135.762C1074.69 139.722 1071.96 145.309 1071.96 152.522C1071.96 158.886 1073.91 163.553 1077.82 166.523C1081.69 169.494 1086.67 170.979 1092.75 170.979C1102.37 170.979 1110.36 168.32 1116.72 163.002C1123.09 157.712 1126.27 149.552 1126.27 138.52V128.337ZM1304.68 68.0881C1317.56 68.0881 1327.17 71.3692 1333.54 77.9316C1339.9 84.5223 1343.08 95.1719 1343.08 109.881V183.919H1324.63V110.729C1324.63 92.7676 1316.92 83.7868 1301.5 83.7868C1290.47 83.7868 1282.59 86.969 1277.87 93.3333C1273.12 99.6977 1270.74 108.961 1270.74 121.124V183.919H1252.28V110.729C1252.28 92.7676 1244.51 83.7868 1228.95 83.7868C1217.49 83.7868 1209.57 87.3226 1205.19 94.3941C1200.8 101.466 1198.61 111.649 1198.61 124.943V183.919H1179.94V70.2095H1195.01L1197.76 85.6961H1198.82C1202.36 79.7561 1207.14 75.3293 1213.17 72.4158C1219.16 69.5306 1225.55 68.0881 1232.34 68.0881C1250.16 68.0881 1261.76 74.4524 1267.14 87.1811H1268.2C1272.01 80.6754 1277.22 75.8667 1283.81 72.7553C1290.37 69.6438 1297.33 68.0881 1304.68 68.0881ZM1432.4 68.0881C1446.4 68.0881 1457.67 72.9674 1466.21 82.7261C1474.78 92.4848 1479.07 107.194 1479.07 126.852C1479.07 146.228 1474.78 160.937 1466.21 170.979C1457.67 181.02 1446.33 186.041 1432.18 186.041C1423.42 186.041 1416.16 184.372 1410.42 181.034C1404.7 177.725 1400.22 173.878 1396.97 169.494H1395.7C1395.98 171.898 1396.26 174.939 1396.54 178.616C1396.83 182.293 1396.97 185.475 1396.97 188.162V234.834H1378.3V70.2095H1393.57L1396.12 85.6961H1396.97C1400.36 80.7461 1404.82 76.5739 1410.33 73.1795C1415.85 69.7852 1423.2 68.0881 1432.4 68.0881ZM1429 83.7868C1417.4 83.7868 1409.23 87.0397 1404.48 93.5455C1399.75 100.051 1397.25 109.951 1396.97 123.246V126.852C1396.97 140.854 1399.26 151.631 1403.84 159.183C1408.45 166.764 1416.98 170.554 1429.43 170.554C1436.36 170.554 1442.04 168.645 1446.48 164.826C1450.95 161.008 1454.28 155.803 1456.45 149.212C1458.66 142.65 1459.76 135.126 1459.76 126.64C1459.76 113.629 1457.25 103.233 1452.21 95.4548C1447.2 87.6761 1439.47 83.7868 1429 83.7868Z" fill="white"/>
</g>
</g>
</g>
</g>
</g>
</g>
<defs>
<clipPath id="clip0_8_187">
<rect width="257.068" height="257.523" fill="white"/>
</clipPath>
<clipPath id="clip1_8_187">
<rect width="257.068" height="257.523" fill="white"/>
</clipPath>
<clipPath id="clip2_8_187">
<rect width="1131.37" height="212.145" fill="white" transform="translate(347.74 22.689)"/>
</clipPath>
<clipPath id="clip3_8_187">
<rect width="1131.37" height="212.145" fill="white" transform="translate(347.74 22.689)"/>
</clipPath>
<clipPath id="clip4_8_187">
<rect width="1131.37" height="212.145" fill="white" transform="translate(347.74 22.689)"/>
</clipPath>
<clipPath id="clip5_8_187">
<rect width="1131.37" height="212.145" fill="white" transform="translate(347.74 22.689)"/>
</clipPath>
<clipPath id="clip6_8_187">
<rect width="1131.37" height="212.145" fill="white" transform="translate(347.74 22.689)"/>
</clipPath>
<clipPath id="clip7_8_187">
<rect width="1131.37" height="212.145" fill="white" transform="translate(347.74 22.689)"/>
</clipPath>
</defs>
</svg>
