<svg width="81" height="80" viewBox="0 0 81 80" fill="none" xmlns="http://www.w3.org/2000/svg">
<path d="M16.2107 49.2877L16.0326 49.4631C16.2219 49.6554 16.4711 49.75 16.7186 49.75C16.9667 49.75 17.2151 49.6544 17.4038 49.4648L17.4038 49.4647L19.1708 47.6885C19.5012 59.4998 29.1649 69.0086 41 69.0086C52.8351 69.0086 62.4988 59.5006 62.8292 47.6892L64.5962 49.4655L64.5962 49.4655C64.7849 49.6551 65.0333 49.7507 65.2814 49.7507C65.5294 49.7507 65.7779 49.6551 65.9665 49.4655C66.3447 49.0862 66.3443 48.4716 65.9665 48.0919L62.5554 44.6633L62.3781 44.8396L62.5553 44.6633C62.3736 44.4806 62.1281 44.3781 61.8702 44.3781C61.6128 44.3781 61.3664 44.4803 61.1849 44.6635C61.1848 44.6636 61.1847 44.6637 61.1846 44.6638L57.7731 48.0919C57.3954 48.4716 57.395 49.0862 57.7731 49.4655C58.1518 49.846 58.7648 49.846 59.1434 49.4655L60.8908 47.7095C60.5606 58.1165 52.28 66.5361 41.9684 67.0357V29.8762H49.7593C50.296 29.8762 50.7278 29.4395 50.7278 28.9042C50.7278 28.3689 50.296 27.9323 49.7593 27.9323H41.9684V22.6638C44.8016 22.1972 46.971 19.7248 46.971 16.7491C46.971 13.442 44.2939 10.75 41 10.75C37.7061 10.75 35.029 13.442 35.029 16.7491C35.029 19.7255 37.1984 22.1972 40.0316 22.6638V27.9323H32.2407C31.704 27.9323 31.2722 28.3689 31.2722 28.9042C31.2722 29.4395 31.704 29.8762 32.2407 29.8762H40.0316V67.0343C29.72 66.5347 21.4393 58.1157 21.1092 47.7081L22.8566 49.4641C23.2352 49.8446 23.8482 49.8446 24.2269 49.4641C24.6048 49.0842 24.6048 48.4703 24.2269 48.0905L20.815 44.6618C20.4478 44.2929 19.8118 44.2929 19.4447 44.6618L19.6219 44.8382L19.4446 44.6619L16.0335 48.0905C15.6556 48.4702 15.6553 49.085 16.0337 49.4643L16.2107 49.2877ZM16.2107 49.2877C15.9298 49.0061 15.9298 48.5491 16.2107 48.2668L17.2266 49.2884C17.0865 49.4292 16.9025 49.5 16.7186 49.5C16.5347 49.5 16.3508 49.4299 16.2107 49.2877ZM36.9659 16.7491C36.9659 14.5121 38.777 12.6939 41 12.6939C43.223 12.6939 45.0341 14.5121 45.0341 16.7491C45.0341 18.986 43.223 20.8042 41 20.8042C38.777 20.8042 36.9659 18.986 36.9659 16.7491Z" fill="black" stroke="black" stroke-width="0.5"/>
</svg>