<?xml version="1.0" encoding="UTF-8"?>
<!DOCTYPE svg PUBLIC "-//W3C//DTD SVG 1.1//EN" "http://www.w3.org/Graphics/SVG/1.1/DTD/svg11.dtd">
<svg xmlns="http://www.w3.org/2000/svg" version="1.1" width="512px" height="512px" style="shape-rendering:geometricPrecision; text-rendering:geometricPrecision; image-rendering:optimizeQuality; fill-rule:evenodd; clip-rule:evenodd" xmlns:xlink="http://www.w3.org/1999/xlink">
<g><path style="opacity:0.939" fill="#000000" d="M 147.5,-0.5 C 151.833,-0.5 156.167,-0.5 160.5,-0.5C 167.255,2.61668 171.422,7.95001 173,15.5C 174.341,31.1336 174.841,46.8003 174.5,62.5C 224.168,62.3333 273.834,62.5 323.5,63C 396.434,70.9275 439.601,111.094 453,183.5C 456.197,197.513 458.363,211.679 459.5,226C 460.182,242.988 452.182,250.655 435.5,249C 430.214,247.359 425.547,244.692 421.5,241C 400.781,212.796 373.114,195.462 338.5,189C 327.915,187.01 317.249,185.677 306.5,185C 261.835,184.5 217.168,184.333 172.5,184.5C 172.667,200.17 172.5,215.837 172,231.5C 167.686,244.97 158.519,249.803 144.5,246C 140.385,244.777 136.718,242.777 133.5,240C 90.0604,206.195 46.8938,172.028 4,137.5C 2.47576,135.102 0.97576,132.769 -0.5,130.5C -0.5,126.167 -0.5,121.833 -0.5,117.5C 1.29483,114.596 3.12816,111.596 5,108.5C 46.8333,75.3333 88.6667,42.1667 130.5,9C 135.938,5.28447 141.605,2.11781 147.5,-0.5 Z M 152.5,17.5 C 153.931,17.8807 154.764,18.8807 155,20.5C 155.333,36.8333 155.667,53.1667 156,69.5C 157.35,74.1849 160.183,77.6849 164.5,80C 218.455,81.3164 272.455,81.9831 326.5,82C 364.251,85.5013 393.751,102.668 415,133.5C 430.863,163.954 439.03,196.288 439.5,230.5C 438.5,230 437.5,229.5 436.5,229C 427.809,219.31 418.809,209.977 409.5,201C 381.761,180.194 350.428,168.861 315.5,167C 264.442,166.014 213.442,166.347 162.5,168C 158.42,170.312 155.92,173.812 155,178.5C 154.667,194.833 154.333,211.167 154,227.5C 151.79,228.749 149.624,228.582 147.5,227C 103.879,193.047 60.5456,158.714 17.5,124C 18.4533,122.045 19.7866,120.378 21.5,119C 61.1206,88.3811 100.454,57.3811 139.5,26C 143.739,22.9103 148.072,20.0769 152.5,17.5 Z"/></g>
<g><path style="opacity:0.937" fill="#000000" d="M 311.5,511.5 C 307.167,511.5 302.833,511.5 298.5,511.5C 291.266,508.745 287.099,503.412 286,495.5C 284.599,479.877 284.099,464.21 284.5,448.5C 234.832,448.667 185.166,448.5 135.5,448C 66.2696,441.438 23.7696,404.272 8,336.5C 4.43215,321.832 1.59882,307.166 -0.5,292.5C -0.5,287.5 -0.5,282.5 -0.5,277.5C 3.21504,263.304 12.215,258.47 26.5,263C 31.3561,265.26 35.6895,268.26 39.5,272C 61.5058,300.621 90.5058,317.621 126.5,323C 135.109,324.493 143.776,325.493 152.5,326C 196.832,326.5 241.165,326.667 285.5,326.5C 285.333,313.163 285.5,299.829 286,286.5C 287.224,268.269 296.724,261.102 314.5,265C 316.949,265.725 319.283,266.725 321.5,268C 364.833,302 408.167,336 451.5,370C 460.268,378.686 461.768,388.52 456,399.5C 453.167,403 450,406.167 446.5,409C 405.167,441.333 363.833,473.667 322.5,506C 318.741,507.879 315.075,509.713 311.5,511.5 Z M 18.5,280.5 C 19.9217,280.709 21.255,281.209 22.5,282C 31.1912,291.69 40.1912,301.023 49.5,310C 77.2367,330.805 108.57,342.139 143.5,344C 193.5,344.667 243.5,344.667 293.5,344C 299.167,342.178 302.667,338.344 304,332.5C 304.333,316.167 304.667,299.833 305,283.5C 306.388,282.446 307.888,282.28 309.5,283C 353.5,317.667 397.5,352.333 441.5,387C 440.547,388.955 439.213,390.622 437.5,392C 397.879,422.619 358.546,453.619 319.5,485C 315.228,488.429 310.562,491.262 305.5,493.5C 304.749,492.624 304.249,491.624 304,490.5C 303.667,474.5 303.333,458.5 303,442.5C 302.1,437.263 299.266,433.429 294.5,431C 240.545,429.684 186.545,429.017 132.5,429C 77.1793,422.338 42.346,392.171 28,338.5C 22.3432,319.559 19.1765,300.226 18.5,280.5 Z"/></g>
</svg>
