<?xml version="1.0" encoding="UTF-8"?>
<!DOCTYPE svg PUBLIC "-//W3C//DTD SVG 1.1//EN" "http://www.w3.org/Graphics/SVG/1.1/DTD/svg11.dtd">
<svg xmlns="http://www.w3.org/2000/svg" version="1.1" width="512px" height="512px" style="shape-rendering:geometricPrecision; text-rendering:geometricPrecision; image-rendering:optimizeQuality; fill-rule:evenodd; clip-rule:evenodd" xmlns:xlink="http://www.w3.org/1999/xlink">
<g><path style="opacity:1" fill="#000000" d="M 167.5,-0.5 C 172.833,-0.5 178.167,-0.5 183.5,-0.5C 183.5,15.5 183.5,31.5 183.5,47.5C 178.167,47.5 172.833,47.5 167.5,47.5C 167.5,31.5 167.5,15.5 167.5,-0.5 Z"/></g>
<g><path style="opacity:0.896" fill="#000000" d="M 36.5,25.5 C 53.0814,40.5789 69.248,56.2456 85,72.5C 85.6667,73.1667 85.6667,73.8333 85,74.5C 81.5,78 78,81.5 74.5,85C 73.8333,85.6667 73.1667,85.6667 72.5,85C 57,69.5 41.5,54 26,38.5C 25.3333,37.8333 25.3333,37.1667 26,36.5C 29.7039,32.9643 33.2039,29.2976 36.5,25.5 Z"/></g>
<g><path style="opacity:0.947" fill="#000000" d="M 511.5,290.5 C 511.5,299.167 511.5,307.833 511.5,316.5C 505.559,344.94 488.225,361.773 459.5,367C 341.5,367.667 223.5,367.667 105.5,367C 62.6569,357.818 40.6569,331.318 39.5,287.5C 39.252,258.166 50.252,233.999 72.5,215C 63.9434,197.813 61.1101,179.647 64,160.5C 72.6524,111.02 101.152,79.52 149.5,66C 183.509,59.0353 214.842,65.202 243.5,84.5C 303.746,70.9765 357.746,83.4765 405.5,122C 435.895,148.956 452.895,182.79 456.5,223.5C 479.016,229.845 494.85,243.845 504,265.5C 507.3,273.723 509.8,282.057 511.5,290.5 Z M 174.5,79.5 C 191.181,79.8037 206.848,83.9704 221.5,92C 173.636,112.702 142.636,148.202 128.5,198.5C 114.515,198.14 101.015,200.473 88,205.5C 84.3255,200.472 81.9922,194.805 81,188.5C 77.8007,135.385 101.301,100.218 151.5,83C 159.242,81.3512 166.909,80.1846 174.5,79.5 Z M 286.5,95.5 C 338.55,96.4458 381.05,116.779 414,156.5C 432.157,181.146 440.324,208.813 438.5,239.5C 458.995,238.328 474.162,246.661 484,264.5C 495.074,283.506 497.408,303.506 491,324.5C 482.127,342.362 467.627,351.195 447.5,351C 337.833,351.667 228.167,351.667 118.5,351C 79.0728,348.073 58.4061,326.907 56.5,287.5C 56.7327,261.199 67.3994,240.366 88.5,225C 93.5992,222.117 98.9325,219.783 104.5,218C 117.076,216.059 129.743,215.059 142.5,215C 157.07,150.098 197.07,111.098 262.5,98C 270.651,97.1635 278.651,96.3301 286.5,95.5 Z"/></g>
<g><path style="opacity:1" fill="#000000" d="M -0.5,167.5 C 15.5,167.5 31.5,167.5 47.5,167.5C 47.5,172.833 47.5,178.167 47.5,183.5C 31.5,183.5 15.5,183.5 -0.5,183.5C -0.5,178.167 -0.5,172.833 -0.5,167.5 Z"/></g>
<g><path style="opacity:0.936" fill="#000000" d="M 167.5,379.5 C 172.966,381.711 178.3,384.211 183.5,387C 177.074,401.442 170.74,415.942 164.5,430.5C 178.167,431.167 191.833,431.833 205.5,432.5C 192.801,455.25 179.634,477.583 166,499.5C 161.843,497.35 157.677,495.184 153.5,493C 152.978,492.439 152.645,491.772 152.5,491C 160.366,476.768 168.366,462.602 176.5,448.5C 163.846,447.667 151.18,447.167 138.5,447C 148.655,424.698 158.322,402.198 167.5,379.5 Z"/></g>
<g><path style="opacity:0.936" fill="#000000" d="M 247.5,379.5 C 252.966,381.711 258.3,384.211 263.5,387C 257.074,401.442 250.74,415.942 244.5,430.5C 258.167,431.167 271.833,431.833 285.5,432.5C 272.801,455.25 259.634,477.583 246,499.5C 241.843,497.35 237.677,495.184 233.5,493C 232.978,492.439 232.645,491.772 232.5,491C 240.366,476.768 248.366,462.602 256.5,448.5C 243.846,447.667 231.18,447.167 218.5,447C 228.655,424.698 238.322,402.198 247.5,379.5 Z"/></g>
<g><path style="opacity:0.936" fill="#000000" d="M 327.5,379.5 C 332.966,381.711 338.3,384.211 343.5,387C 337.074,401.442 330.74,415.942 324.5,430.5C 338.167,431.167 351.833,431.833 365.5,432.5C 352.801,455.25 339.634,477.583 326,499.5C 321.843,497.35 317.677,495.184 313.5,493C 312.978,492.439 312.645,491.772 312.5,491C 320.366,476.768 328.366,462.602 336.5,448.5C 323.846,447.667 311.18,447.167 298.5,447C 308.655,424.698 318.322,402.198 327.5,379.5 Z"/></g>
</svg>
