<svg width="60" height="62" viewBox="0 0 60 62" fill="none" xmlns="http://www.w3.org/2000/svg">
<path d="M8.20349 55.119H42.4423C45.2709 55.1165 48.0221 54.1921 50.2821 52.4848C52.5422 50.7775 54.1888 48.3798 54.9744 45.6522C55.0022 45.5564 55.0075 45.4553 54.9897 45.3571C54.9719 45.2588 54.9315 45.1661 54.8719 45.0863C54.8096 45.0028 54.7281 44.9358 54.6344 44.891C54.5406 44.8462 54.4374 44.8249 54.3337 44.829H30.6279V8.17069C30.634 8.028 30.5925 7.88735 30.5102 7.7709C30.4278 7.65446 30.3092 7.56884 30.173 7.52756C30.0417 7.48769 29.9011 7.49116 29.772 7.53747C29.6428 7.58378 29.5318 7.67047 29.4554 7.78481L7.67171 39.9412C7.59925 40.0381 7.55552 40.1535 7.54554 40.2742C7.53556 40.3949 7.55975 40.516 7.61532 40.6235C7.67088 40.7311 7.75557 40.8206 7.85962 40.882C7.96368 40.9433 8.08287 40.9739 8.20349 40.9702H29.3465V44.829H5.6407C5.47077 44.829 5.30781 44.8968 5.18766 45.0174C5.0675 45.138 5 45.3016 5 45.4721V51.9034C5 52.7562 5.33751 53.5742 5.93828 54.1772C6.23575 54.4758 6.5889 54.7127 6.97756 54.8743C7.36623 55.0359 7.7828 55.119 8.20349 55.119ZM9.4144 39.684L29.3465 10.2609V39.684H9.4144ZM6.28139 46.1153H53.4495C52.6166 48.3741 51.1161 50.3237 49.149 51.7029C47.1818 53.0822 44.8418 53.8253 42.4423 53.8328H8.20349C7.69372 53.8328 7.20482 53.6295 6.84436 53.2677C6.4839 52.9059 6.28139 52.4151 6.28139 51.9034V46.1153Z" fill="#B28224" stroke="#B28224"/>
</svg>
