<svg width="81" height="80" viewBox="0 0 81 80" fill="none" xmlns="http://www.w3.org/2000/svg">
<g clip-path="url(#clip0_442_22)">
<path d="M61.0331 19.4643H52.105V15.8929C52.105 15.3991 51.706 15 51.2122 15C50.7185 15 50.3194 15.3991 50.3194 15.8929V23.9286C50.3194 24.4224 50.7185 24.8214 51.2122 24.8214C51.706 24.8214 52.105 24.4224 52.105 23.9286V21.25H61.0331C62.5115 21.25 63.7115 22.4529 63.7115 23.9286V31.9643H17.2856V23.9286C17.2856 22.45 18.4885 21.25 19.964 21.25H28.9089V19.4643H19.964C17.5038 19.4643 15.5 21.4682 15.5 23.9286V60.5357C15.5 62.9961 17.5038 65 19.964 65H61.036C63.4962 65 65.5 62.9961 65.5 60.5357V23.9286C65.4971 21.4653 63.4962 19.4643 61.0331 19.4643ZM63.7115 60.5357C63.7115 62.0142 62.5087 63.2143 61.0331 63.2143H19.964C18.4856 63.2143 17.2856 62.0114 17.2856 60.5357V33.75H63.7144L63.7115 60.5357Z" fill="white"/>
<path d="M29.7847 24.8214C30.2784 24.8214 30.6775 24.4224 30.6775 23.9286V21.25H50.4791V19.4477L30.6775 19.4643V15.8929C30.6775 15.3991 30.2784 15 29.7847 15C29.2909 15 28.8918 15.3991 28.8918 15.8929V23.9286C28.8918 24.4224 29.2909 24.8214 29.7847 24.8214Z" fill="white"/>
</g>
<defs>
<clipPath id="clip0_442_22">
<rect width="80" height="80" fill="white" transform="translate(0.5)"/>
</clipPath>
</defs>
</svg>
