<svg width="81" height="80" viewBox="0 0 81 80" fill="none" xmlns="http://www.w3.org/2000/svg">
<path d="M47.9696 28.8365C47.6927 28.5595 47.245 28.5595 46.968 28.8365L45.3644 30.4401C45.0874 30.7171 45.0874 31.1655 45.3644 31.4417C45.6413 31.7187 46.089 31.7187 46.3659 31.4417L46.6649 31.1428C46.0656 33.7226 43.8896 35.7016 41.2086 36.002V25.0306H43.4554C43.8464 25.0306 44.1637 24.7133 44.1637 24.3223C44.1637 23.9313 43.8464 23.6139 43.4554 23.6139H41.2086V21.8098C42.1825 21.5052 42.8965 20.6056 42.8965 19.5325C42.8965 18.2115 41.8213 17.1362 40.5002 17.1362C39.1792 17.1362 38.1039 18.2115 38.1039 19.5325C38.1039 20.6056 38.8179 21.5052 39.7919 21.8098V23.6139H37.5451C37.1541 23.6139 36.8367 23.9313 36.8367 24.3223C36.8367 24.7133 37.1541 25.0306 37.5451 25.0306H39.7919V36.002C37.1123 35.7016 34.937 33.7233 34.337 31.1449L34.6345 31.4424C34.7727 31.5806 34.954 31.65 35.1353 31.65C35.3167 31.65 35.498 31.5806 35.6361 31.4424C35.9131 31.1655 35.9131 30.7178 35.6361 30.4409L34.0324 28.8372C33.7555 28.5602 33.3078 28.5602 33.0309 28.8372L31.4272 30.4409C31.1502 30.7178 31.1502 31.1662 31.4272 31.4424C31.7042 31.7194 32.1525 31.7194 32.4288 31.4424L32.8672 31.004C33.4856 34.6625 36.6682 37.4619 40.5009 37.4619C44.3323 37.4619 47.5156 34.6639 48.1339 31.0054L48.5717 31.4431C48.7098 31.5813 48.8912 31.6507 49.0725 31.6507C49.2538 31.6507 49.4352 31.5813 49.5733 31.4431C49.8502 31.1662 49.8502 30.7185 49.5733 30.4416L47.9696 28.8365ZM40.5002 20.5121C39.9598 20.5121 39.5206 20.073 39.5206 19.5325C39.5206 18.9921 39.9598 18.5529 40.5002 18.5529C41.0407 18.5529 41.4799 18.9921 41.4799 19.5325C41.4799 20.073 41.0407 20.5121 40.5002 20.5121Z" fill="white" stroke="white" stroke-width="0.5"/>
<path d="M65.9002 23.1905L47.3284 14.8215C42.9247 12.8368 38.0748 12.8375 33.6717 14.8215L15.1 23.1905C13.3178 23.993 12.1667 25.9495 12.1667 28.1736V35.6253C12.1667 38.0549 13.57 40.1069 15.4839 40.755V48.3732C15.4839 48.7259 15.7467 49.0064 16.0845 49.0595C16.3055 58.3203 27.1267 65.857 40.4342 65.9285C40.4973 65.9292 40.5582 65.9292 40.6212 65.9292C48.5319 65.9292 55.9524 63.2503 60.4978 58.746C63.3601 55.9091 64.8859 52.5608 64.9192 49.0588C65.2549 49.0036 65.5163 48.7245 65.5163 48.3732V40.755C67.4302 40.1076 68.8334 38.0549 68.8334 35.6253V28.1736C68.8334 25.9495 67.6824 23.993 65.9002 23.1905ZM59.5004 57.7402C55.1803 62.0206 48.0601 64.5586 40.442 64.5118C27.9257 64.4445 17.7442 57.5546 17.5019 49.0808H63.5011C63.4607 52.1897 62.0823 55.1817 59.5004 57.7402ZM64.0996 47.6648H16.9005V40.9711H64.1003L64.0996 47.6648ZM67.4168 35.6253C67.4168 37.7921 65.988 39.5544 64.2328 39.5544H16.7674C15.0121 39.5544 13.5834 37.7921 13.5834 35.6253V28.1736C13.5834 26.531 14.4263 25.0478 15.6815 24.4818L34.2533 16.1128C36.2678 15.2055 38.3836 14.7514 40.5001 14.7514C42.6159 14.7514 44.7331 15.2055 46.7469 16.1128L65.3187 24.4818C66.5738 25.0478 67.4168 26.531 67.4168 28.1736V35.6253Z" fill="white" stroke="white" stroke-width="0.5"/>
</svg>
