<svg width="60" height="62" viewBox="0 0 60 62" fill="none" xmlns="http://www.w3.org/2000/svg">
<path d="M46.9469 48.5686L46.9361 48.6051L46.9276 48.6422C46.5459 50.3035 45.8621 51.4166 44.9666 52.1282C44.0701 52.8404 42.8275 53.2566 41.1295 53.272H23.4935C23.167 53.272 22.9592 53.0191 22.9592 52.7886V27.738L27.0376 10.0555C27.9502 8.59508 28.8102 7.97317 29.5418 7.80399C30.1661 7.65962 30.9638 7.78609 31.9963 8.4734L31.1234 25.7997L31.0573 27.1126H32.3718H49.8094H49.8372L49.865 27.1113C51.4239 27.0419 52.111 27.3363 52.3852 27.6007C52.5899 27.798 52.821 28.2425 52.6048 29.3811L46.9469 48.5686ZM15.2408 27.3512V52.6855C15.2408 53.0206 14.9685 53.2764 14.672 53.2778C14.6717 53.2778 14.6713 53.2778 14.671 53.2778L7.81642 53.2778C7.52526 53.2778 7.25 53.0241 7.25 52.6855V27.3512C7.25 27.0126 7.52526 26.759 7.81642 26.759H14.6744C14.9656 26.759 15.2408 27.0126 15.2408 27.3512Z" stroke="#B28224" stroke-width="2.5"/>
</svg>
