<svg width="81" height="80" viewBox="0 0 81 80" fill="none" xmlns="http://www.w3.org/2000/svg">
<path d="M40.7724 19.1667C47.1551 19.1667 52.3103 24.3837 52.3103 30.9669C52.3103 37.426 47.1551 42.6429 40.7724 42.6429C34.267 42.6429 29.1118 37.426 29.1118 30.9669C29.1118 24.3837 34.267 19.1667 40.7724 19.1667ZM40.7724 21.651C35.6172 21.651 31.5667 25.75 31.5667 30.9669C31.5667 36.0597 35.6172 40.1587 40.7724 40.1587C45.8049 40.1587 49.8554 36.0597 49.8554 30.9669C49.8554 25.75 45.8049 21.651 40.7724 21.651Z" fill="white"/>
<path d="M25.7988 60.6538C25.7988 61.2749 25.1851 61.7717 24.4486 61.6475C23.8349 61.6475 23.3439 61.0264 23.4667 60.2812C24.4486 51.4621 31.8132 44.6304 40.7735 44.6304C49.611 44.6304 57.0983 51.4621 58.0803 60.2812C58.0803 61.0264 57.5893 61.6475 56.9756 61.6475C56.2391 61.7717 55.6254 61.2749 55.6254 60.6538C54.7662 52.9526 48.3836 47.1146 40.7735 47.1146C33.1634 47.1146 26.658 52.9526 25.7988 60.6538Z" fill="white"/>
<path d="M63.4791 29.2278C68.5115 29.2278 72.5621 33.3268 72.5621 38.2953C72.5621 43.388 68.5115 47.487 63.4791 47.487C58.5693 47.487 54.5188 43.388 54.5188 38.2953C54.5188 33.3268 58.5693 29.2278 63.4791 29.2278ZM63.4791 31.712C59.9195 31.712 56.9737 34.6931 56.9737 38.2953C56.9737 42.0217 59.9195 45.0028 63.4791 45.0028C67.1614 45.0028 70.1072 42.0217 70.1072 38.2953C70.1072 34.6931 67.1614 31.712 63.4791 31.712Z" fill="white"/>
<path d="M58.5693 52.4559C57.9556 52.8285 57.2191 52.5801 56.8509 51.959C56.6054 51.338 56.8509 50.5927 57.4646 50.22C59.3058 49.3506 61.3924 48.7295 63.479 48.7295C70.1072 48.7295 75.7534 53.698 76.7353 60.2813C76.8581 60.9023 76.3671 61.6476 75.7534 61.6476C75.0169 61.7718 74.4032 61.275 74.2804 60.6539C73.544 55.1885 68.8797 51.2137 63.479 51.2137C61.7606 51.2137 60.0422 51.7106 58.5693 52.4559Z" fill="white"/>
<path d="M17.9409 29.228C22.8506 29.228 26.9012 33.327 26.9012 38.2955C26.9012 43.3883 22.8506 47.4873 17.9409 47.4873C12.9084 47.4873 8.85791 43.3883 8.85791 38.2955C8.85791 33.327 12.9084 29.228 17.9409 29.228ZM17.9409 31.7123C14.2586 31.7123 11.3128 34.6934 11.3128 38.2955C11.3128 42.0219 14.2586 45.003 17.9409 45.003C21.5005 45.003 24.4463 42.0219 24.4463 38.2955C24.4463 34.6934 21.5005 31.7123 17.9409 31.7123Z" fill="white"/>
<path d="M7.14041 60.6537C7.01767 61.2747 6.40395 61.7716 5.79023 61.6474C5.05378 61.6474 4.5628 60.9021 4.68555 60.281C5.66749 53.6978 11.3137 48.7292 17.9418 48.7292C20.0285 48.7292 22.1151 49.3503 24.079 50.2198C24.5699 50.5924 24.8154 51.3377 24.5699 51.9588C24.2017 52.5798 23.4653 52.8283 22.8515 52.4556C21.3786 51.7104 19.6602 51.2135 17.9418 51.2135C12.5411 51.2135 7.87687 55.1883 7.14041 60.6537Z" fill="white"/>
</svg>
