<svg width="168" height="168" viewBox="0 0 168 168" fill="none" xmlns="http://www.w3.org/2000/svg">
<path d="M147.367 34.0724C146.055 22.6099 134.942 14.5424 124.022 13.2824C111.51 11.1999 101.342 21.0699 94.71 30.5199C86.905 41.0899 84.7699 54.3199 78.7324 65.7649C75.6874 63.8224 70.2274 66.1149 71.6099 70.1574C68.3374 69.8249 65.2224 73.2549 66.3599 76.4749C62.3349 76.0549 59.0624 81.3924 62.1424 84.4549C54.3199 93.2574 43.5749 98.3849 34.8774 106.137C21.7349 116.515 14.8224 133.367 28.5599 146.492C58.4849 172.042 76.8424 127.155 87.8324 105.245C91.9799 108.71 98.7175 106.085 96.46 100.31C99.645 100.502 102.725 97.1424 101.255 94.0449C106.785 95.1824 107.607 88.8824 103.985 85.9249C122.517 73.8849 150.202 59.9899 147.367 34.0724ZM136.605 37.0824C136.482 35.4374 136.167 33.8099 135.59 32.2699C138.775 32.0774 142.03 31.9724 145.075 30.9574C146.3 34.9824 146.352 39.3049 145.53 43.4349C142.66 41.1774 139.615 39.1649 136.605 37.0824ZM132.387 48.3874C124.11 62.2649 109.2 70.1224 96.6874 79.6599C93.4324 77.0524 90.2474 74.3574 86.9574 71.7849C95.8649 56.1924 99.3474 35.3674 116.34 26.0224C121.887 22.9599 129.552 24.8499 132.895 30.2924C136.307 35.7874 135.415 42.9624 132.387 48.3874ZM116.707 70.0349C116.41 72.3274 116.025 74.6374 115.395 76.8774C112.945 78.5049 110.46 80.0974 107.957 81.6549C108.272 78.9249 108.027 76.1774 108.097 73.4474C111.16 71.3124 114.187 69.1249 117.127 66.8324C116.987 67.8999 116.847 68.9674 116.707 70.0349ZM102.935 84.6649C102.882 84.6824 102.847 84.7174 102.812 84.7524C101.22 83.3524 99.5925 82.0049 97.9474 80.6749C100.765 78.5749 103.635 76.5624 106.522 74.5324C106.505 77.2624 106.715 80.0274 106.19 82.7049C105.105 83.3874 104.02 84.0349 102.935 84.6649ZM97.2299 91.7174C94.0274 91.9624 90.825 92.2949 87.6225 92.3649C84.9974 90.2824 82.3724 88.1999 79.7649 86.1174C83.0899 85.6449 86.45 85.2774 89.81 85.6274C92.3475 87.6399 94.8674 89.6699 97.4049 91.6824C97.3524 91.6999 97.2824 91.6999 97.2299 91.7174ZM73.1149 111.562C67.5849 122.412 62.1949 135.205 51.1349 141.435C48.6849 142.712 45.8674 143.622 43.0849 143.185C38.6574 142.082 34.3349 139.107 32.3749 134.907L32.2874 134.68C28.9974 125.125 37.9749 116.83 44.9049 111.615C53.5324 105.122 62.9299 99.4174 70.1924 91.2974C73.3249 93.8699 76.5274 96.3724 79.7124 98.8749C77.3324 103.022 75.1974 107.275 73.1149 111.562ZM36.4699 139.93C36.3824 139.877 36.4524 139.912 36.4699 139.93V139.93ZM33.2324 120.435C33.2499 120.47 33.2674 120.487 33.2324 120.435V120.435ZM52.1849 101.22C52.4999 98.8924 52.8849 96.5824 53.5149 94.3074C55.9299 92.4174 58.2399 90.4224 60.4449 88.3049C60.3574 91.5074 60.7424 94.6749 60.8649 97.8774C57.8899 100.292 54.8099 102.515 51.7124 104.737C51.8874 103.565 52.0274 102.392 52.1849 101.22ZM67.4449 84.4374C69.8249 84.1224 72.2399 83.9824 74.6374 84.0349C77.2449 86.1174 79.8524 88.1999 82.4774 90.2649C79.2924 90.4749 76.1074 90.7549 73.0274 91.5949C70.2974 89.3899 67.6024 87.1324 64.9424 84.8399C65.7649 84.6999 66.6049 84.5599 67.4449 84.4374ZM70.4899 78.2074C73.8849 77.7699 77.3149 78.0849 80.7274 78.3824C83.0549 80.2374 85.3649 82.0749 87.6925 83.9299C84.4724 83.8599 81.2874 84.3324 78.1024 84.7874C75.3899 82.6349 72.6774 80.4649 69.9649 78.2949C70.1224 78.2599 70.3149 78.2249 70.4899 78.2074ZM72.9924 69.1949V69.1774C72.9749 69.0549 72.9924 69.1424 72.9924 69.1949ZM85.3475 72.5199C87.9025 74.4799 90.3874 76.5624 92.8899 78.5924C89.9324 79.2399 86.9399 78.8199 83.9824 78.9774C81.1824 76.7549 78.3824 74.5149 75.5824 72.2924C78.8374 72.4849 82.0924 72.9399 85.3475 72.5199ZM63.3324 85.5224C65.1874 87.1324 67.0774 88.7249 68.9674 90.2999C66.9374 92.5399 64.6974 94.6399 62.3874 96.6174C62.2474 93.2749 61.6874 89.8974 62.2299 86.5724C62.5799 86.2224 62.9474 85.8549 63.2974 85.5049C63.2974 85.5049 63.3149 85.5224 63.3324 85.5224ZM74.5674 92.8549C75.5474 92.6274 76.5449 92.4524 77.5424 92.3124C79.7824 91.9974 82.0574 91.8924 84.3149 91.7349C86.4149 93.4149 88.5325 95.0774 90.6325 96.7574C87.5 96.8799 84.4024 97.5099 81.3399 98.1749C79.0824 96.4074 76.8074 94.6399 74.5674 92.8549ZM96.0399 87.6924C95.6899 87.7449 95.34 87.7624 95.0075 87.7624C91.9625 85.3474 88.9349 82.9149 85.8899 80.4999C88.7774 80.7624 91.6824 80.4824 94.4999 79.9049C97.1424 82.0749 99.8374 84.1749 102.375 86.4674C100.222 86.6424 98.1574 87.3599 96.0399 87.6924ZM92.3299 37.4149C95.7774 36.5574 99.3475 36.2074 102.882 36.3299C100.52 39.6199 98.5249 43.1724 96.7049 46.7774C93.6424 47.0049 90.5974 47.3549 87.5699 47.8274C88.9524 44.2574 90.5099 40.7574 92.3299 37.4149ZM141.907 24.6749C143.027 26.1274 143.92 27.7549 144.585 29.4699C141.505 30.4849 138.18 30.4849 134.96 30.7474C134.032 28.8749 132.667 27.1599 130.952 25.8999C132.912 23.9749 134.732 21.8399 135.852 19.3024C138.075 20.7549 140.245 22.5399 141.907 24.6749ZM128.03 15.6274C130.287 16.2924 132.457 17.2549 134.47 18.4449C134.452 18.4624 134.452 18.4974 134.435 18.5149C133.367 21.0174 131.53 23.1174 129.57 24.9899C128.31 24.2549 126.927 23.6949 125.51 23.3624C124.95 20.1599 123.497 17.1324 121.38 14.6649C123.655 14.7174 125.895 14.9974 128.03 15.6274ZM120.785 16.3624C120.802 16.3799 120.802 16.3974 120.785 16.3624V16.3624ZM119.157 14.6824C119.192 14.6824 119.227 14.6824 119.262 14.6824C121.59 16.9399 123.217 19.9149 123.882 23.0824C121.45 22.7849 118.947 23.1874 116.707 24.1499C112.647 23.0474 108.517 22.0324 104.3 21.9099C108.43 18.1999 113.435 14.8574 119.157 14.6824ZM102.55 23.5549C106.627 23.2399 110.652 24.2724 114.59 25.2174C110.46 27.6499 106.942 31.0274 104.02 34.8074C100.45 34.5974 96.8624 34.8424 93.3624 35.5599C95.9174 31.1849 98.9624 27.1074 102.55 23.5549ZM86.4149 51.0824C86.5899 50.5574 86.7824 50.0324 86.9749 49.5074C89.9149 49.0174 92.9249 48.6499 95.9174 48.4049C94.1324 52.0799 92.6274 55.8774 91.0874 59.6574C88.3924 59.8324 85.6974 60.0949 83.0199 60.4624C84.4024 57.4349 85.3299 54.2324 86.4149 51.0824ZM82.2499 62.1424C84.9624 61.7574 87.6925 61.4774 90.4224 61.2849C89.0574 64.5574 87.5699 67.7949 85.7149 70.8224C84.5249 69.8949 83.2649 69.0199 82.0574 68.1274C81.3924 67.6199 80.7624 67.0599 80.0799 66.5699C80.7974 65.1174 81.5499 63.6299 82.2499 62.1424ZM74.3574 66.9724C74.3399 66.9724 74.3049 66.9899 74.2874 67.0074C74.3224 66.9899 74.3399 66.9724 74.3574 66.9724ZM72.9924 68.6349C72.9924 68.6174 73.0099 68.5824 73.0099 68.5824C73.0975 68.0749 73.4124 67.6374 73.8149 67.3049C73.9549 67.1824 74.1474 67.0949 74.3049 67.0074C76.1249 66.1324 78.0849 66.9024 79.5199 68.1274C80.7274 69.1249 82.1449 70.1574 83.4574 71.1024C80.1849 71.2249 76.9474 70.6999 73.6924 70.6649C73.6399 70.5774 73.6574 70.6124 73.6924 70.6649C73.2374 70.0699 72.9049 69.3874 72.9924 68.6349ZM71.8024 71.7149C71.8374 71.7149 71.9424 71.7149 71.8024 71.7149V71.7149ZM67.7249 74.7074C67.9699 72.7649 70.0524 71.3474 71.9599 71.7324C74.3924 72.8524 76.2824 75.0574 78.5049 76.6149C75.1449 76.3349 71.7499 76.2474 68.4424 76.9824C68.2324 76.7374 68.0924 76.4574 67.9524 76.1774C67.9524 76.1949 67.9524 76.1949 67.9699 76.1949C67.7599 75.7399 67.6724 75.2149 67.7249 74.7074ZM62.4924 81.2524C62.6499 80.0974 63.3499 78.9599 64.3999 78.4174C65.3799 78.0149 66.1499 77.8224 67.1649 78.2599C69.1599 79.4149 70.8049 81.1124 72.66 82.4774C69.5799 82.5474 66.4999 82.8974 63.4899 83.5449C63.3324 83.3874 63.1749 83.2124 63.0349 83.0374C63.0874 83.0899 63.0874 83.1074 63.0699 83.0899C62.7549 82.6874 62.5449 82.2499 62.4924 81.7599C62.4749 81.5849 62.4749 81.4099 62.4924 81.2524ZM46.8474 99.0499C48.4399 98.0349 49.9974 96.9499 51.5199 95.8299C50.9774 98.3324 50.6624 100.887 50.3124 103.442C50.3124 103.442 50.3124 103.425 50.3124 103.39C50.1899 104.265 50.0674 105.14 49.9274 106.015C46.8824 108.202 43.8199 110.372 40.8974 112.735C40.6524 109.427 40.5649 105.98 41.4049 102.76C43.1899 101.447 45.0099 100.24 46.8474 99.0499ZM33.3899 109.655C35.3499 107.765 37.3799 105.945 39.4974 104.247C39.1124 107.467 39.0424 110.74 39.4799 113.96C37.2049 115.972 35.1924 118.23 33.4774 120.75C32.3224 119.385 31.3949 117.215 30.7124 115.85C30.3624 114.992 30.1349 114.082 29.8549 113.19C30.9924 111.965 32.1999 110.792 33.3899 109.655ZM23.9224 122.71C24.9899 119.752 26.6349 116.987 28.6474 114.572C29.5224 117.25 30.7474 119.962 32.6024 122.097C31.3249 124.25 30.3449 126.577 30.0299 129.01C27.7899 127.487 25.5149 125.965 23.4149 124.232C23.5724 123.725 23.7474 123.217 23.9224 122.71ZM23.0299 125.93C25.2349 127.715 27.6149 129.255 29.9424 130.865C29.9599 132.912 30.5199 134.96 31.5349 136.727C29.1199 136.972 26.7049 137.235 24.3949 138.005C22.6449 134.207 22.1899 129.955 23.0299 125.93ZM28.8399 138.6H28.8224C28.8224 138.6 28.8224 138.6 28.8399 138.6ZM25.0949 139.422C27.4924 138.635 30.0124 138.46 32.5149 138.18C33.9324 140.017 35.7524 141.505 37.7649 142.677C36.0674 144.322 34.4749 146.125 33.3024 148.19C29.9249 146.002 27.0199 142.957 25.0949 139.422ZM44.8699 152.32C41.2824 151.987 37.7824 150.815 34.6324 149.012C35.8224 146.877 37.4674 145.127 39.2174 143.465C40.4599 144.077 41.7374 144.62 43.1199 144.777C43.5924 147.577 44.7649 150.272 46.6724 152.407C46.0774 152.407 45.4824 152.372 44.8699 152.32ZM52.1324 151.497C51.0124 151.865 49.8749 152.127 48.7199 152.267C46.6024 150.325 45.2549 147.682 44.7299 144.865C46.5849 144.83 48.4224 144.357 50.1374 143.64C53.4099 144.987 56.8924 145.775 60.3224 146.527C57.9774 148.715 55.1949 150.5 52.1324 151.497ZM64.6799 141.977C63.7349 143.08 62.7549 144.165 61.7224 145.197C58.4674 144.585 55.2299 143.78 52.0799 142.73C55.9824 140.647 59.2374 137.567 61.8624 134.067C64.8549 134.26 67.8299 134.347 70.7874 133.787C68.9149 136.622 66.9024 139.387 64.6799 141.977ZM72.0124 131.915C69.0724 132.685 66.0099 132.755 62.9999 132.545C65.4149 129.29 67.5499 125.842 69.4749 122.272C72.3274 122.062 75.1799 121.835 78.0149 121.432C76.1599 125.02 74.1824 128.52 72.0124 131.915ZM78.8724 119.735C76.0549 120.19 73.1849 120.435 70.3324 120.645C72.2049 117.092 73.9199 113.452 75.7049 109.847C78.5924 109.655 81.4624 109.182 84.3324 108.762C82.5299 112.437 80.7274 116.095 78.8724 119.735ZM85.1899 107.065C82.3024 107.467 79.4324 107.957 76.5274 108.202C77.9449 105.385 79.3974 102.585 80.9549 99.8549C82.8449 101.325 84.7174 102.777 86.6074 104.247C86.0999 105.157 85.6624 106.137 85.1899 107.065ZM94.0799 99.5049C96.2849 101.587 95.4624 104.737 92.8899 105.21C91.9799 105.332 91.0699 105.14 90.2475 104.79H90.2299C87.5699 103.39 85.4174 101.202 82.9674 99.4699C86.1525 98.7874 89.3724 98.2099 92.6274 98.3674C93.1174 98.7174 93.6249 99.0849 94.0799 99.5049ZM100.065 96.0224C100.047 96.2324 99.9599 96.4599 99.8899 96.6524L99.8725 96.6699C99.7674 96.8974 99.6799 97.0374 99.5399 97.2299C99.1199 97.7374 98.5774 98.1574 97.9649 98.4199C97.9649 98.4199 97.965 98.4199 97.9825 98.4199C96.845 98.9274 95.4975 98.6649 94.57 97.8599C92.8725 96.5124 91.1749 95.1649 89.4774 93.8349C92.5924 93.6249 95.8125 93.6249 98.8575 92.9249C99.575 93.6774 100.222 95.3924 100.065 96.0224ZM104.562 89.5124C104.597 89.6524 104.615 89.7924 104.65 89.9324C104.79 90.5449 104.492 92.0674 103.495 92.3824C103.495 92.3824 103.495 92.3824 103.512 92.3824C100.817 93.2749 98.7524 90.5449 96.7749 89.1799C98.5424 88.8474 100.24 88.3224 102.007 88.0774C101.99 88.0774 101.972 88.0774 101.972 88.0774C102.042 88.0774 102.165 88.0424 102.025 88.0774C102.602 88.0074 103.18 87.9899 103.74 87.9199C104.09 88.3924 104.422 88.9174 104.562 89.5124ZM117.337 75.5649C117.897 73.0099 118.23 70.4199 118.562 67.8299C118.562 67.8474 118.562 67.8474 118.562 67.8649C118.667 67.0424 118.79 66.2199 118.93 65.3974C121.975 62.9299 124.88 60.3049 127.575 57.4524C127.855 61.3374 127.855 65.3974 126.42 69.0724C123.445 71.3124 120.417 73.4649 117.337 75.5649ZM128.607 67.3399C129.465 63.6124 129.447 59.6924 128.975 55.8949C131.075 53.4799 132.982 50.8549 134.365 47.9674C136.465 50.5924 137.882 53.7774 139.142 56.8924C136.115 60.8299 132.457 64.2249 128.607 67.3399ZM140.245 55.3699C138.775 52.2724 137.48 48.8949 135.03 46.4099C135.975 44.0649 136.552 41.5799 136.622 39.0074C139.492 40.9849 142.415 42.9099 145.127 45.1149C144.182 48.8074 142.432 52.2549 140.245 55.3699Z" fill="#B28224" fill-opacity="0.4"/>
</svg>
